<svg width="24" height="32" viewBox="0 0 16 21" fill="none" xmlns="http://www.w3.org/2000/svg">
<path d="M8.00005 13.4606C7.47722 13.462 6.9762 13.6577 6.60641 14.005C6.23662 14.3524 6.0281 14.8231 6.02637 15.3144V19.1058C6.02637 19.5977 6.23431 20.0695 6.60445 20.4173C6.97458 20.7652 7.4766 20.9606 8.00005 20.9606C8.5235 20.9606 9.02552 20.7652 9.39566 20.4173C9.76579 20.0695 9.97374 19.5977 9.97374 19.1058V19.068V19.0697V15.3153C9.97225 14.8241 9.7641 14.3535 9.39468 14.006C9.02527 13.6585 8.5246 13.4624 8.00193 13.4606H8.00005Z" fill="white"/>
<path d="M14.5424 2.34917H11.0428C10.6189 0.999881 9.39621 0.0394897 7.95251 0.0394897C6.50881 0.0394897 5.28701 0.999881 4.8691 2.32547L4.86306 2.34917H1.40922C1.16808 2.34917 0.936817 2.44656 0.766305 2.61992C0.595793 2.79328 0.5 3.0284 0.5 3.27357C0.5 3.51873 0.595793 3.75386 0.766305 3.92722C0.936817 4.10058 1.16808 4.19797 1.40922 4.19797H4.90882C5.14023 4.98717 5.64276 5.63329 6.3033 6.03799L6.31712 6.04589C3.83813 6.807 2.06113 9.10088 2.04559 11.8196V16.6725C2.04919 17.0757 2.20825 17.4613 2.48856 17.7464C2.76886 18.0316 3.14804 18.1935 3.54455 18.1974H4.77239V15.5638C4.77239 14.6937 5.11235 13.8593 5.71748 13.244C6.32262 12.6288 7.14335 12.2832 7.99914 12.2832C8.85492 12.2832 9.67566 12.6288 10.2808 13.244C10.8859 13.8593 11.2259 14.6937 11.2259 15.5638V18.1974H12.4529C12.8497 18.1942 13.2295 18.0325 13.5102 17.7473C13.7909 17.462 13.9502 17.076 13.9535 16.6725V11.8671C13.953 10.5712 13.541 9.31007 12.7788 8.27137C12.0167 7.23266 10.9451 6.47184 9.72346 6.10207L9.68202 6.09154C10.3572 5.68195 10.8576 5.03075 11.0851 4.26556L11.0912 4.24274H14.5908C14.8317 4.24204 15.0626 4.14443 15.2329 3.97122C15.4033 3.79801 15.4993 3.56329 15.5 3.31834C15.4906 3.06427 15.3872 2.82317 15.2104 2.6433C15.0337 2.46344 14.7966 2.35807 14.5467 2.34829H14.545L14.5424 2.34917ZM7.95251 5.16626C7.59286 5.16626 7.24128 5.05783 6.94224 4.85468C6.6432 4.65153 6.41012 4.36279 6.27249 4.02497C6.13485 3.68714 6.09884 3.31541 6.16901 2.95678C6.23917 2.59815 6.41236 2.26872 6.66668 2.01016C6.92099 1.75161 7.24501 1.57552 7.59775 1.50419C7.95049 1.43285 8.31612 1.46946 8.6484 1.6094C8.98068 1.74933 9.26468 1.98629 9.46449 2.29033C9.6643 2.59436 9.77095 2.9518 9.77095 3.31746L9.77182 3.37013C9.77182 4.36213 8.98089 5.16626 8.00518 5.16626L7.95078 5.16538H7.95337L7.95251 5.16626Z" fill="#444444"/>
<path d="M8.00005 13.4606C7.47722 13.462 6.9762 13.6577 6.60641 14.005C6.23662 14.3524 6.0281 14.8231 6.02637 15.3144V19.1058C6.02637 19.5977 6.23431 20.0695 6.60445 20.4173C6.97458 20.7652 7.4766 20.9606 8.00005 20.9606C8.5235 20.9606 9.02552 20.7652 9.39566 20.4173C9.76579 20.0695 9.97374 19.5977 9.97374 19.1058V19.068V19.0697V15.3153C9.97225 14.8241 9.7641 14.3535 9.39468 14.006C9.02527 13.6585 8.5246 13.4624 8.00193 13.4606H8.00005Z" fill="#444444"/>
<path d="M14.5424 2.34917H11.0428C10.6189 0.999881 9.39621 0.0394897 7.95251 0.0394897C6.50881 0.0394897 5.28701 0.999881 4.8691 2.32547L4.86306 2.34917H1.40922C1.16808 2.34917 0.936817 2.44656 0.766305 2.61992C0.595793 2.79328 0.5 3.0284 0.5 3.27357C0.5 3.51873 0.595793 3.75386 0.766305 3.92722C0.936817 4.10058 1.16808 4.19797 1.40922 4.19797H4.90882C5.14023 4.98717 5.64276 5.63329 6.3033 6.03799L6.31712 6.04589C3.83813 6.807 2.06113 9.10088 2.04559 11.8196V16.6725C2.04919 17.0757 2.20825 17.4613 2.48856 17.7464C2.76886 18.0316 3.14804 18.1935 3.54455 18.1974H4.77239V15.5638C4.77239 14.6937 5.11235 13.8593 5.71748 13.244C6.32262 12.6288 7.14335 12.2832 7.99914 12.2832C8.85492 12.2832 9.67566 12.6288 10.2808 13.244C10.8859 13.8593 11.2259 14.6937 11.2259 15.5638V18.1974H12.4529C12.8497 18.1942 13.2295 18.0325 13.5102 17.7473C13.7909 17.462 13.9502 17.076 13.9535 16.6725V11.8671C13.953 10.5712 13.541 9.31007 12.7788 8.27137C12.0167 7.23266 10.9451 6.47184 9.72346 6.10207L9.68202 6.09154C10.3572 5.68195 10.8576 5.03075 11.0851 4.26556L11.0912 4.24274H14.5908C14.8317 4.24204 15.0626 4.14443 15.2329 3.97122C15.4033 3.79801 15.4993 3.56329 15.5 3.31834C15.4906 3.06427 15.3872 2.82317 15.2104 2.6433C15.0337 2.46344 14.7966 2.35807 14.5467 2.34829H14.545L14.5424 2.34917ZM7.95251 5.16626C7.59286 5.16626 7.24128 5.05783 6.94224 4.85468C6.6432 4.65153 6.41012 4.36279 6.27249 4.02497C6.13485 3.68714 6.09884 3.31541 6.16901 2.95678C6.23917 2.59815 6.41236 2.26872 6.66668 2.01016C6.92099 1.75161 7.24501 1.57552 7.59775 1.50419C7.95049 1.43285 8.31612 1.46946 8.6484 1.6094C8.98068 1.74933 9.26468 1.98629 9.46449 2.29033C9.6643 2.59436 9.77095 2.9518 9.77095 3.31746L9.77182 3.37013C9.77182 4.36213 8.98089 5.16626 8.00518 5.16626L7.95078 5.16538H7.95337L7.95251 5.16626Z" fill="#444444"/>
<path d="M8.00005 13.4606C7.47722 13.462 6.9762 13.6577 6.60641 14.005C6.23662 14.3524 6.0281 14.8231 6.02637 15.3144V19.1058C6.02637 19.5977 6.23431 20.0695 6.60445 20.4173C6.97458 20.7652 7.4766 20.9606 8.00005 20.9606C8.5235 20.9606 9.02552 20.7652 9.39566 20.4173C9.76579 20.0695 9.97374 19.5977 9.97374 19.1058V19.068V19.0697V15.3153C9.97225 14.8241 9.7641 14.3535 9.39468 14.006C9.02527 13.6585 8.5246 13.4624 8.00193 13.4606H8.00005Z" fill="#444444"/>
<path d="M14.5424 2.34917H11.0428C10.6189 0.999881 9.39621 0.0394897 7.95251 0.0394897C6.50881 0.0394897 5.28701 0.999881 4.8691 2.32547L4.86306 2.34917H1.40922C1.16808 2.34917 0.936817 2.44656 0.766305 2.61992C0.595793 2.79328 0.5 3.0284 0.5 3.27357C0.5 3.51873 0.595793 3.75386 0.766305 3.92722C0.936817 4.10058 1.16808 4.19797 1.40922 4.19797H4.90882C5.14023 4.98717 5.64276 5.63329 6.3033 6.03799L6.31712 6.04589C3.83813 6.807 2.06113 9.10088 2.04559 11.8196V16.6725C2.04919 17.0757 2.20825 17.4613 2.48856 17.7464C2.76886 18.0316 3.14804 18.1935 3.54455 18.1974H4.77239V15.5638C4.77239 14.6937 5.11235 13.8593 5.71748 13.244C6.32262 12.6288 7.14335 12.2832 7.99914 12.2832C8.85492 12.2832 9.67566 12.6288 10.2808 13.244C10.8859 13.8593 11.2259 14.6937 11.2259 15.5638V18.1974H12.4529C12.8497 18.1942 13.2295 18.0325 13.5102 17.7473C13.7909 17.462 13.9502 17.076 13.9535 16.6725V11.8671C13.953 10.5712 13.541 9.31007 12.7788 8.27137C12.0167 7.23266 10.9451 6.47184 9.72346 6.10207L9.68202 6.09154C10.3572 5.68195 10.8576 5.03075 11.0851 4.26556L11.0912 4.24274H14.5908C14.8317 4.24204 15.0626 4.14443 15.2329 3.97122C15.4033 3.79801 15.4993 3.56329 15.5 3.31834C15.4906 3.06427 15.3872 2.82317 15.2104 2.6433C15.0337 2.46344 14.7966 2.35807 14.5467 2.34829H14.545L14.5424 2.34917ZM7.95251 5.16626C7.59286 5.16626 7.24128 5.05783 6.94224 4.85468C6.6432 4.65153 6.41012 4.36279 6.27249 4.02497C6.13485 3.68714 6.09884 3.31541 6.16901 2.95678C6.23917 2.59815 6.41236 2.26872 6.66668 2.01016C6.92099 1.75161 7.24501 1.57552 7.59775 1.50419C7.95049 1.43285 8.31612 1.46946 8.6484 1.6094C8.98068 1.74933 9.26468 1.98629 9.46449 2.29033C9.6643 2.59436 9.77095 2.9518 9.77095 3.31746L9.77182 3.37013C9.77182 4.36213 8.98089 5.16626 8.00518 5.16626L7.95078 5.16538H7.95337L7.95251 5.16626Z" fill="#444444"/>
</svg>
