<svg width="15" height="21" viewBox="0 0 15 21" fill="none" xmlns="http://www.w3.org/2000/svg">
<path d="M7.50001 13.4604C6.97717 13.4618 6.47616 13.6576 6.10637 14.0049C5.73658 14.3523 5.52805 14.823 5.52632 15.3143V19.1057C5.52632 19.5976 5.73426 20.0694 6.1044 20.4172C6.47454 20.765 6.97655 20.9604 7.50001 20.9604C8.02346 20.9604 8.52547 20.765 8.89561 20.4172C9.26575 20.0694 9.47369 19.5976 9.47369 19.1057V19.0678V19.0696V15.3152C9.47221 14.824 9.26405 14.3533 8.89464 14.0059C8.52523 13.6584 8.02455 13.4623 7.50188 13.4604H7.50001Z" fill="#373737"/>
<path d="M14.0424 2.34911H10.5428C10.1189 0.99982 8.89621 0.0394287 7.45251 0.0394287C6.00881 0.0394287 4.78701 0.99982 4.3691 2.32541L4.36306 2.34911H0.909222C0.668081 2.34911 0.436817 2.4465 0.266305 2.61986C0.0957927 2.79322 0 3.02834 0 3.27351C0 3.51867 0.0957927 3.7538 0.266305 3.92716C0.436817 4.10051 0.668081 4.19791 0.909222 4.19791H4.40882C4.64023 4.98711 5.14276 5.63323 5.8033 6.03792L5.81712 6.04583C3.33813 6.80694 1.56113 9.10082 1.54559 11.8196V16.6725C1.54919 17.0756 1.70825 17.4612 1.98856 17.7463C2.26886 18.0315 2.64804 18.1934 3.04455 18.1973H4.27239V15.5637C4.27239 14.6936 4.61235 13.8592 5.21748 13.244C5.82262 12.6287 6.64335 12.2831 7.49914 12.2831C8.35492 12.2831 9.17566 12.6287 9.78079 13.244C10.3859 13.8592 10.7259 14.6936 10.7259 15.5637V18.1973H11.9529C12.3497 18.1941 12.7295 18.0325 13.0102 17.7472C13.2909 17.462 13.4502 17.076 13.4535 16.6725V11.867C13.453 10.5711 13.041 9.31001 12.2788 8.2713C11.5167 7.2326 10.4451 6.47178 9.22346 6.10201L9.18202 6.09148C9.85722 5.68189 10.3576 5.03068 10.5851 4.2655L10.5912 4.24268H14.0908C14.3317 4.24198 14.5626 4.14437 14.7329 3.97116C14.9033 3.79795 14.9993 3.56323 15 3.31828C14.9906 3.0642 14.8872 2.82311 14.7104 2.64324C14.5337 2.46338 14.2966 2.35801 14.0467 2.34823H14.045L14.0424 2.34911ZM7.45251 5.1662C7.09286 5.1662 6.74128 5.05777 6.44224 4.85462C6.1432 4.65147 5.91012 4.36273 5.77249 4.0249C5.63485 3.68708 5.59884 3.31535 5.66901 2.95672C5.73917 2.59809 5.91236 2.26866 6.16668 2.0101C6.42099 1.75154 6.74501 1.57546 7.09775 1.50413C7.45049 1.43279 7.81612 1.4694 8.1484 1.60933C8.48068 1.74927 8.76468 1.98623 8.96449 2.29026C9.1643 2.5943 9.27095 2.95174 9.27095 3.3174L9.27182 3.37007C9.27182 4.36207 8.48089 5.1662 7.50518 5.1662L7.45078 5.16532H7.45337L7.45251 5.1662Z" fill="#373737"/>
<path d="M7.50001 13.4604C6.97717 13.4618 6.47616 13.6576 6.10637 14.0049C5.73658 14.3523 5.52805 14.823 5.52632 15.3143V19.1057C5.52632 19.5976 5.73426 20.0694 6.1044 20.4172C6.47454 20.765 6.97655 20.9604 7.50001 20.9604C8.02346 20.9604 8.52547 20.765 8.89561 20.4172C9.26575 20.0694 9.47369 19.5976 9.47369 19.1057V19.0678V19.0696V15.3152C9.47221 14.824 9.26405 14.3533 8.89464 14.0059C8.52523 13.6584 8.02455 13.4623 7.50188 13.4604H7.50001Z" fill="#373737"/>
<path d="M14.0424 2.34911H10.5428C10.1189 0.99982 8.89621 0.0394287 7.45251 0.0394287C6.00881 0.0394287 4.78701 0.99982 4.3691 2.32541L4.36306 2.34911H0.909222C0.668081 2.34911 0.436817 2.4465 0.266305 2.61986C0.0957927 2.79322 0 3.02834 0 3.27351C0 3.51867 0.0957927 3.7538 0.266305 3.92716C0.436817 4.10051 0.668081 4.19791 0.909222 4.19791H4.40882C4.64023 4.98711 5.14276 5.63323 5.8033 6.03792L5.81712 6.04583C3.33813 6.80694 1.56113 9.10082 1.54559 11.8196V16.6725C1.54919 17.0756 1.70825 17.4612 1.98856 17.7463C2.26886 18.0315 2.64804 18.1934 3.04455 18.1973H4.27239V15.5637C4.27239 14.6936 4.61235 13.8592 5.21748 13.244C5.82262 12.6287 6.64335 12.2831 7.49914 12.2831C8.35492 12.2831 9.17566 12.6287 9.78079 13.244C10.3859 13.8592 10.7259 14.6936 10.7259 15.5637V18.1973H11.9529C12.3497 18.1941 12.7295 18.0325 13.0102 17.7472C13.2909 17.462 13.4502 17.076 13.4535 16.6725V11.867C13.453 10.5711 13.041 9.31001 12.2788 8.2713C11.5167 7.2326 10.4451 6.47178 9.22346 6.10201L9.18202 6.09148C9.85722 5.68189 10.3576 5.03068 10.5851 4.2655L10.5912 4.24268H14.0908C14.3317 4.24198 14.5626 4.14437 14.7329 3.97116C14.9033 3.79795 14.9993 3.56323 15 3.31828C14.9906 3.0642 14.8872 2.82311 14.7104 2.64324C14.5337 2.46338 14.2966 2.35801 14.0467 2.34823H14.045L14.0424 2.34911ZM7.45251 5.1662C7.09286 5.1662 6.74128 5.05777 6.44224 4.85462C6.1432 4.65147 5.91012 4.36273 5.77249 4.0249C5.63485 3.68708 5.59884 3.31535 5.66901 2.95672C5.73917 2.59809 5.91236 2.26866 6.16668 2.0101C6.42099 1.75154 6.74501 1.57546 7.09775 1.50413C7.45049 1.43279 7.81612 1.4694 8.1484 1.60933C8.48068 1.74927 8.76468 1.98623 8.96449 2.29026C9.1643 2.5943 9.27095 2.95174 9.27095 3.3174L9.27182 3.37007C9.27182 4.36207 8.48089 5.1662 7.50518 5.1662L7.45078 5.16532H7.45337L7.45251 5.1662Z" fill="#373737"/>
<path d="M7.50001 13.4604C6.97717 13.4618 6.47616 13.6576 6.10637 14.0049C5.73658 14.3523 5.52805 14.823 5.52632 15.3143V19.1057C5.52632 19.5976 5.73426 20.0694 6.1044 20.4172C6.47454 20.765 6.97655 20.9604 7.50001 20.9604C8.02346 20.9604 8.52547 20.765 8.89561 20.4172C9.26575 20.0694 9.47369 19.5976 9.47369 19.1057V19.0678V19.0696V15.3152C9.47221 14.824 9.26405 14.3533 8.89464 14.0059C8.52523 13.6584 8.02455 13.4623 7.50188 13.4604H7.50001Z" fill="#373737"/>
<path d="M14.0424 2.34911H10.5428C10.1189 0.99982 8.89621 0.0394287 7.45251 0.0394287C6.00881 0.0394287 4.78701 0.99982 4.3691 2.32541L4.36306 2.34911H0.909222C0.668081 2.34911 0.436817 2.4465 0.266305 2.61986C0.0957927 2.79322 0 3.02834 0 3.27351C0 3.51867 0.0957927 3.7538 0.266305 3.92716C0.436817 4.10051 0.668081 4.19791 0.909222 4.19791H4.40882C4.64023 4.98711 5.14276 5.63323 5.8033 6.03792L5.81712 6.04583C3.33813 6.80694 1.56113 9.10082 1.54559 11.8196V16.6725C1.54919 17.0756 1.70825 17.4612 1.98856 17.7463C2.26886 18.0315 2.64804 18.1934 3.04455 18.1973H4.27239V15.5637C4.27239 14.6936 4.61235 13.8592 5.21748 13.244C5.82262 12.6287 6.64335 12.2831 7.49914 12.2831C8.35492 12.2831 9.17566 12.6287 9.78079 13.244C10.3859 13.8592 10.7259 14.6936 10.7259 15.5637V18.1973H11.9529C12.3497 18.1941 12.7295 18.0325 13.0102 17.7472C13.2909 17.462 13.4502 17.076 13.4535 16.6725V11.867C13.453 10.5711 13.041 9.31001 12.2788 8.2713C11.5167 7.2326 10.4451 6.47178 9.22346 6.10201L9.18202 6.09148C9.85722 5.68189 10.3576 5.03068 10.5851 4.2655L10.5912 4.24268H14.0908C14.3317 4.24198 14.5626 4.14437 14.7329 3.97116C14.9033 3.79795 14.9993 3.56323 15 3.31828C14.9906 3.0642 14.8872 2.82311 14.7104 2.64324C14.5337 2.46338 14.2966 2.35801 14.0467 2.34823H14.045L14.0424 2.34911ZM7.45251 5.1662C7.09286 5.1662 6.74128 5.05777 6.44224 4.85462C6.1432 4.65147 5.91012 4.36273 5.77249 4.0249C5.63485 3.68708 5.59884 3.31535 5.66901 2.95672C5.73917 2.59809 5.91236 2.26866 6.16668 2.0101C6.42099 1.75154 6.74501 1.57546 7.09775 1.50413C7.45049 1.43279 7.81612 1.4694 8.1484 1.60933C8.48068 1.74927 8.76468 1.98623 8.96449 2.29026C9.1643 2.5943 9.27095 2.95174 9.27095 3.3174L9.27182 3.37007C9.27182 4.36207 8.48089 5.1662 7.50518 5.1662L7.45078 5.16532H7.45337L7.45251 5.1662Z" fill="#373737"/>
</svg>
