<svg width="36" height="38" viewBox="0 0 36 38" fill="none" xmlns="http://www.w3.org/2000/svg">
<path d="M35.3359 15.6156C35.5614 16.8238 35.6842 18.087 35.6842 19.4051C35.6842 29.7158 28.7836 37.0473 18.3611 37.0473C15.9908 37.048 13.6437 36.5817 11.4538 35.675C9.26385 34.7683 7.27404 33.439 5.59805 31.763C3.92206 30.087 2.59273 28.0972 1.68602 25.9072C0.779314 23.7173 0.312999 21.3702 0.313722 19C0.312999 16.6298 0.779314 14.2826 1.68602 12.0927C2.59273 9.90277 3.92206 7.91296 5.59805 6.23697C7.27404 4.56097 9.26385 3.23164 11.4538 2.32494C13.6437 1.41823 15.9908 0.951915 18.3611 0.952638C23.2341 0.952638 27.3059 2.74564 30.4299 5.65697L25.3424 10.7445V10.7316C23.4486 8.92764 21.0451 8.0018 18.3611 8.0018C12.4064 8.0018 7.56639 13.0325 7.56639 18.989C7.56639 24.9436 12.4064 29.9853 18.3611 29.9853C23.7639 29.9853 27.4416 26.8961 28.1969 22.6538H18.3611V15.6156H35.3377H35.3359Z" fill="#FF5C38"/>
</svg>
