<svg width="24" height="25" viewBox="0 0 24 25" fill="none" xmlns="http://www.w3.org/2000/svg">
<path d="M2.03347 12.2336C1.83347 14.6336 2.53347 16.6336 4.03347 18.4336C5.53347 20.2336 7.53347 21.0336 9.93347 21.0336H19.9335C20.4335 21.0336 20.9335 20.8336 21.3335 20.4336C21.7335 20.0336 21.9335 19.5336 21.9335 19.0336V18.2336C21.9335 17.6336 21.8335 16.9336 21.7335 16.0336H13.5335C12.5335 16.0336 11.7335 15.6336 11.0335 14.9336C10.3335 14.2336 9.93347 13.3336 9.93347 12.4336C9.93347 10.8336 10.6335 9.73361 12.1335 9.13361L16.9335 7.03361C15.2335 5.83361 13.2335 5.13361 10.9335 5.03361C8.73347 4.83361 6.73347 5.53361 4.93347 6.93361C3.13347 8.33361 2.23347 10.0336 2.03347 12.2336ZM11.9335 12.4336C11.9335 12.8336 12.1335 13.2336 12.4335 13.5336C12.7335 13.8336 13.1335 14.0336 13.5335 14.0336H21.3335C20.7335 11.8336 19.8335 10.0336 18.5335 8.63361L12.9335 10.9336C12.2335 11.1336 11.9335 11.6336 11.9335 12.4336Z" fill="#373737"/>
</svg>
