<svg width="36" height="43" viewBox="0 0 36 43" fill="none" xmlns="http://www.w3.org/2000/svg">
<path d="M19.7738 4.05997C22.5363 0.402839 26.3768 0.38501 26.3768 0.38501C26.3768 0.38501 26.9481 3.82333 24.2037 7.13553C21.2734 10.6722 17.9426 10.0935 17.9426 10.0935C17.9426 10.0935 17.3172 7.31202 19.7738 4.05997ZM18.294 12.502C19.7152 12.502 22.3528 10.5399 25.786 10.5399C31.6956 10.5399 34.0205 14.7636 34.0205 14.7636C34.0205 14.7636 29.4735 17.0986 29.4735 22.7646C29.4735 29.1562 35.1378 31.359 35.1378 31.359C35.1378 31.359 31.1782 42.553 25.83 42.553C23.3735 42.553 21.4638 40.8903 18.8756 40.8903C16.238 40.8903 13.6205 42.615 11.9158 42.615C7.03198 42.6152 0.862061 31.9965 0.862061 23.4608C0.862061 15.0629 6.08449 10.6575 10.9829 10.6575C14.1673 10.6575 16.6385 12.502 18.294 12.502Z" fill="white"/>
</svg>
