<svg width="263" height="181" viewBox="0 0 263 181" fill="none" xmlns="http://www.w3.org/2000/svg">
<path fill-rule="evenodd" clip-rule="evenodd" d="M17.1811 133.61C9.57239 135.715 3.56804 141.421 1.03426 148.954C-0.80236 154.414 -0.140865 162.315 2.60515 167.719C8.31637 178.959 22.9441 183.238 32.3533 176.422C33.3332 175.712 34.2348 175.131 34.3561 175.131C34.4779 175.131 34.5775 176.11 34.5775 177.306V179.48H38.9266H43.2756V167.52V155.56H34.36H25.4444V159.242V162.923L29.867 163.047C33.0549 163.136 34.3426 163.331 34.4796 163.745C34.7527 164.568 31.2052 167.815 28.6805 169.051C25.7071 170.508 20.4138 170.561 17.7752 169.16C8.29593 164.13 8.34855 147.974 17.8587 143.371C22.2861 141.227 28.2013 142.571 31.7588 146.528L33.699 148.686L37.4 145.945C39.4358 144.437 41.1011 142.966 41.1011 142.675C41.1011 141.58 38.1602 138.318 35.6547 136.633C34.2252 135.671 31.9789 134.524 30.6633 134.083C27.3802 132.983 20.3403 132.736 17.1811 133.61ZM60.4545 145.272C54.5037 146.816 50.2533 150.845 48.2928 156.798C47.1446 160.285 47.4912 166.68 49.0064 169.964C51.1001 174.502 55.0591 177.864 59.9705 179.275C63.4963 180.289 69.9342 179.988 73.3918 178.648C80.5077 175.89 84.9738 167.644 83.7161 159.587C82.7828 153.608 79.591 149.182 74.3429 146.588C71.3986 145.133 70.7306 144.978 66.8694 144.849C64.3287 144.764 61.7575 144.934 60.4545 145.272ZM68.3634 153.85C71.3621 154.986 73.2596 158.214 73.2748 162.206C73.2952 167.613 70.2552 171.217 65.6734 171.217C60.7485 171.217 57.7072 167.199 58.1795 161.317C58.3535 159.151 58.6923 158.096 59.6474 156.749C61.754 153.779 65.1733 152.641 68.3634 153.85Z" fill="#FF0D9E"/>
<path fill-rule="evenodd" clip-rule="evenodd" d="M87.8516 159.773V179.505H90.9657H94.0799L94.176 165.766L94.2721 152.028L99.9394 162.464L105.607 172.9L107.437 172.791L109.266 172.682L114.794 162.453L120.321 152.224L120.417 165.865L120.513 179.505H123.814H127.115L127.02 159.865L126.925 140.225H123.623H120.321L113.926 152.127C110.409 158.673 107.409 163.901 107.259 163.745C107.109 163.589 104.151 158.192 100.684 151.751L94.3807 140.041H91.1161H87.8516V159.773ZM168.567 145.758V150.368H166.733H164.898V152.765V155.163H166.711H168.525L168.638 165.398C168.742 174.882 168.805 175.727 169.493 176.924C171.041 179.616 175.015 180.547 179.71 179.318C183.297 178.379 183.258 178.426 182.598 175.733C182.287 174.46 181.999 173.376 181.96 173.323C181.92 173.269 181.29 173.477 180.559 173.784C178.544 174.63 176.766 174.503 175.705 173.436L174.804 172.531V163.847V155.163H177.94H181.076L180.967 152.858L180.858 150.552L177.831 150.445L174.804 150.338V145.743V141.147H171.686H168.567V145.758ZM143.802 150.51C132.887 153.179 128.979 166.807 136.629 175.527C140.566 180.014 148.383 181.355 154.179 178.538C159.679 175.863 163.08 169.01 162.039 162.697C160.583 153.865 152.413 148.405 143.802 150.51ZM196.267 150.51C187.081 152.756 182.468 163.225 186.77 172.064C191.052 180.862 203.396 182.816 210.375 175.799C216.12 170.023 216.162 160.191 210.466 154.464C206.736 150.714 201.452 149.243 196.267 150.51ZM247.865 150.396C245.527 150.858 242.649 152.624 241.44 154.338C240.591 155.541 240.352 156.331 240.222 158.357C239.921 163.035 241.811 164.808 249.831 167.374C252.574 168.252 255.142 169.272 255.536 169.642C256.01 170.085 256.253 170.799 256.253 171.741C256.253 176.217 248.36 176.711 242.551 172.599C241.573 171.907 240.73 171.393 240.678 171.458C240.235 172.013 238.643 175.039 238.643 175.326C238.643 175.527 239.362 176.211 240.24 176.845C245.926 180.95 255.559 181.104 259.866 177.158C261.771 175.412 262.663 172.293 262.066 169.46C261.453 166.548 259.604 165.245 252.809 162.934C249.62 161.849 246.857 160.689 246.489 160.279C245.489 159.169 245.643 157.178 246.82 155.995C247.657 155.154 248.187 154.981 250.296 154.861C253.39 154.686 255.308 155.189 257.608 156.779L259.398 158.017L260.625 156.153C262.066 153.964 261.966 153.653 259.353 152.171C255.962 150.248 251.839 149.611 247.865 150.396ZM220.191 150.599C220.048 150.742 219.932 157.305 219.932 165.183V179.505H223.05H226.169V170.635C226.169 161.031 226.23 160.682 228.246 158.801C229.708 157.435 231.398 156.648 234.009 156.114L236.258 155.654L236.366 153.011L236.474 150.368L234.898 150.372C234.02 150.373 232.512 150.757 231.489 151.239C229.717 152.074 226.24 155.369 226.1 156.346C226.063 156.608 225.939 155.412 225.825 153.687L225.618 150.552L223.034 150.445C221.613 150.387 220.333 150.456 220.191 150.599ZM149.323 155.575C151.404 156.101 153.943 158.335 155.044 160.607C156.092 162.769 156.186 167.1 155.233 169.257C154.385 171.173 152.572 173.144 150.839 174.033C148.612 175.176 144.922 174.887 142.847 173.409C139.776 171.22 138.12 166.233 139.17 162.333C140.05 159.067 142.753 156.193 145.584 155.515C147.253 155.115 147.524 155.119 149.323 155.575ZM203.292 156.135C205.279 157.083 207.348 159.651 208.033 162.018C209.192 166.025 208.125 170.018 205.188 172.673C203.173 174.495 201.894 174.889 198.823 174.633C195.497 174.355 192.92 171.957 191.803 168.097C191.102 165.674 191.344 162.437 192.379 160.397C193.285 158.612 196.104 155.993 197.438 155.696C198.005 155.57 198.634 155.404 198.835 155.328C199.486 155.08 202.057 155.546 203.292 156.135Z" fill="#FF5C38"/>
<path fill-rule="evenodd" clip-rule="evenodd" d="M87.5915 2.12236V4.24472H89.7227H91.8539V2.12236V0H89.7227H87.5915V2.12236ZM96.1163 2.12236V4.24472H105.707H115.297V2.12236V0H105.707H96.1163V2.12236ZM96.1163 10.6118V12.7342H98.2475H100.379V10.6118V8.48944H98.2475H96.1163V10.6118ZM104.641 10.6118V12.7342H106.772H108.904V10.6118V8.48944H106.772H104.641V10.6118ZM113.166 10.6118V12.7342H119.56H125.953V10.6118V8.48944H119.56H113.166V10.6118ZM147.323 13.2698C141.294 14.8427 136.552 19.6002 135.004 25.6299C133.697 30.7174 134.942 36.26 138.319 40.388C138.99 41.2091 139.54 41.9657 139.54 42.0694C139.54 42.1731 138.699 43.7105 137.672 45.4853C133.687 52.3705 132.347 57.184 132.347 64.6184V67.9155H131.215H130.083L130.16 47.4215C130.219 31.7683 130.16 26.6454 129.909 25.7336C129.48 24.1814 127.336 22.0012 125.789 21.5462C124.215 21.083 85.0673 21.083 83.4932 21.5462C82.0298 21.9768 79.8229 24.1745 79.3906 25.6317C78.9254 27.1994 78.9254 66.1844 79.3906 67.7521C79.8229 69.2093 82.0298 71.407 83.4932 71.8376C84.27 72.066 87.547 72.1602 94.7294 72.1602H104.869L104.722 73.583C104.516 75.5703 105.154 77.3414 106.577 78.7308C108.192 80.3071 109.4 80.6496 113.347 80.6496H116.657L115.065 81.9684C111.256 85.1254 108.228 90.1626 107.325 94.8429C107.156 95.7184 106.96 96.7032 106.89 97.0316C106.763 97.6264 106.744 97.6285 101.439 97.6285H96.1163V99.7509V101.873H101.444H106.772V105.467C106.772 108.928 106.796 109.084 107.426 109.711C108.055 110.338 108.216 110.363 111.63 110.363H115.179L115.47 112.199C116.639 119.597 124.017 124.537 131.137 122.691C136.124 121.397 139.9 117.254 140.699 112.199L140.99 110.363H157.922H174.853L175.144 112.199C176.313 119.597 183.691 124.537 190.811 122.691C197.564 120.939 201.868 113.965 200.185 107.502L199.825 106.118H200.597C201.073 106.118 201.634 105.854 202.061 105.43C202.728 104.765 202.746 104.664 202.58 102.518C201.948 94.333 196.055 87.4425 187.999 85.4709L186.027 84.9883L183.032 75.457C181.384 70.2148 180.036 65.9075 180.035 65.8852C180.034 65.8626 181.163 65.8029 182.545 65.7525C185.25 65.6533 185.926 65.3671 187.076 63.8347C187.579 63.1649 187.632 62.6685 187.708 57.9683C187.784 53.1858 187.751 52.7587 187.23 51.7421C186.633 50.5758 185.462 49.7059 184.159 49.4605C183.63 49.361 180.801 49.9471 175.841 51.1844L168.325 53.059H162.875C157.914 53.059 157.412 53.0173 157.288 52.5947C156.596 50.2495 154.991 44.5855 154.991 44.4915C154.991 44.4258 155.441 44.2979 155.99 44.2069C158.899 43.7262 161.895 41.299 163.322 38.2664C164.1 36.6133 164.172 36.2223 164.271 33.0955L164.378 29.713H165.643C167.366 29.713 168.312 28.9763 168.308 27.6376C168.298 24.639 166.323 20.567 163.511 17.7498C159.268 13.4987 153.045 11.7767 147.323 13.2698ZM107.694 30.1192C113.348 31.5857 117.428 36.759 117.428 42.4604C117.428 47.2275 114.128 53.8291 108.385 60.5514C104.929 64.5967 104.416 64.6293 101.271 61.0054C95.3446 54.1764 91.8539 47.3026 91.8539 42.4604C91.8539 34.3305 99.8651 28.0886 107.694 30.1192ZM153.659 31.8354V33.9577H155.79H157.922V31.8354V29.713H158.987H160.053V32.2689C160.053 35.6583 159.71 36.7043 158.064 38.3441C156.554 39.8478 155.341 40.3248 153.029 40.3248H151.528V35.0189V29.713H152.593H153.659V31.8354ZM102.643 34.188C98.0621 35.3869 95.3139 39.9505 96.3713 44.603C97.0674 47.6647 100.396 53.4445 103.775 57.4576L104.641 58.4858L105.507 57.4576C109.01 53.2972 112.301 47.5148 112.912 44.4488C113.976 39.1066 110.47 34.3923 105.204 34.0824C104.235 34.0254 103.083 34.0729 102.643 34.188ZM106.327 38.5643C109.064 39.7032 109.732 43.2768 107.603 45.3967C105.875 47.1174 103.407 47.1174 101.679 45.3967C98.385 42.1158 102.02 36.7723 106.327 38.5643ZM144.671 45.2161C146.802 46.1547 149.224 46.6078 150.184 46.2473C150.879 45.9857 150.968 46.0162 151.106 46.5656C151.19 46.8999 151.327 47.3485 151.409 47.5631C151.517 47.8427 151.173 47.7624 150.191 47.2782C146.801 45.6079 142.705 47.1442 141.197 50.652C140.573 52.1029 140.662 54.5502 141.391 55.9772C141.739 56.658 143.598 58.7801 145.718 60.9157L149.435 64.6601L148.774 66.2216L148.113 67.7828L142.324 67.8545L136.535 67.9261L136.68 63.4771C136.897 56.8323 137.809 53.7742 141.47 47.4215C142.374 45.853 143.134 44.5695 143.159 44.5695C143.183 44.5695 143.864 44.8606 144.671 45.2161ZM183.496 57.569V61.5484H179.167H174.838V59.625C174.838 58.3678 174.688 57.4111 174.404 56.863L173.97 56.0244L178.666 54.8319C181.25 54.1759 183.393 53.628 183.429 53.6145C183.466 53.6007 183.496 55.3803 183.496 57.569ZM170.055 57.955C170.467 58.3654 170.709 58.9093 170.709 59.4261C170.709 59.9428 170.467 60.4867 170.055 60.8971C169.452 61.4977 169.203 61.5484 166.858 61.5484H164.315V59.4261V57.3037H166.858C169.203 57.3037 169.452 57.3544 170.055 57.955ZM170.873 76.3699L172.778 86.814L170.989 92.155L169.2 97.4959L167.823 97.576L166.446 97.6564V96.1476C166.446 93.8128 165.972 92.629 164.408 91.0625C163.644 90.2966 162.839 89.6697 162.621 89.6697C162.281 89.6697 162.211 88.6759 162.137 82.8383L162.051 76.007L161.2 74.2186C159.755 71.1805 156.761 68.7578 153.859 68.2782C152.749 68.0946 152.64 67.7813 153.269 66.5718L153.677 65.7849L161.322 65.8555L168.967 65.9258L170.873 76.3699ZM179.89 79.7211C182.269 87.3085 184.3 93.9706 184.403 94.5256C184.527 95.1878 184.441 96.0492 184.154 97.0319C183.757 98.3928 183.376 98.8741 179.963 102.323L176.209 106.118H174.524H172.84V103.133V100.149L175 93.6953L177.16 87.2417L175.267 76.8145C174.225 71.0797 173.373 66.2471 173.373 66.0751C173.373 65.8727 173.759 65.7913 174.469 65.8443L175.565 65.9258L179.89 79.7211ZM132.351 73.6857C132.353 74.5248 132.427 75.4796 132.515 75.808L132.675 76.4049H121.443H110.211L109.558 75.7536C109.145 75.3432 108.904 74.7994 108.904 74.2826C108.904 73.7658 109.145 73.2219 109.558 72.8115L110.211 72.1602H121.279H132.347L132.351 73.6857ZM149.397 84.8827V89.1155L136.41 89.1937L123.423 89.2717L121.643 90.1114C119.167 91.2795 117.624 92.7837 116.425 95.1976L115.43 97.2019L115.337 101.66L115.243 106.118H113.11H110.977L111.098 101.144C111.233 95.5921 111.55 94.1288 113.384 90.5982C114.714 88.0365 118.464 84.3049 121.025 82.9951C123.119 81.9241 125.086 81.2373 126.956 80.9237C127.65 80.8072 132.983 80.6979 138.807 80.681L149.397 80.6496V84.8827ZM161.53 94.0351C162.067 94.5697 162.184 94.949 162.184 96.1575V97.6285H157.922H153.659V95.5062V93.3838H157.268C160.744 93.3838 160.9 93.4077 161.53 94.0351ZM87.5915 99.7509V101.873H89.7227H91.8539V99.7509V97.6285H89.7227H87.5915V99.7509ZM168.578 103.996V106.118H161.118H153.659V103.996V101.873H161.118H168.578V103.996ZM74.8042 108.24V110.363H76.9354H79.0666V108.24V106.118H76.9354H74.8042V108.24ZM83.3291 108.24V110.363H92.9195H102.51V108.24V106.118H92.9195H83.3291V108.24ZM195.662 107.378C196.414 109.319 196.304 112.247 195.413 113.973C194.386 115.964 193.576 116.802 191.702 117.808C190.169 118.631 189.827 118.71 187.758 118.71C185.689 118.71 185.349 118.632 183.809 117.805C181.087 116.343 179.606 114.096 179.314 110.985L179.153 109.265L180.717 107.692L182.28 106.118H188.727H195.174L195.662 107.378ZM185.627 110.363V112.485H187.758H189.89V110.363V108.24H187.758H185.627V110.363ZM125.953 111.424V112.485H128.085H130.216V111.424V110.363H133.443H136.67L136.481 111.615C136.27 113.02 135.374 114.932 134.373 116.117C134.007 116.551 132.951 117.312 132.028 117.808C130.495 118.631 130.153 118.71 128.085 118.71C126.015 118.71 125.675 118.632 124.135 117.805C121.622 116.455 120.097 114.332 119.687 111.611L119.499 110.363H122.726H125.953V111.424ZM83.3291 116.73V118.852H85.4603H87.5915V116.73V114.607H85.4603H83.3291V116.73ZM91.8539 116.73V118.852H93.9851H96.1163V116.73V114.607H93.9851H91.8539V116.73ZM100.379 116.73V118.852H106.772H113.166V116.73V114.607H106.772H100.379V116.73Z" fill="url(#paint0_linear_111_3559)"/>
<defs>
<linearGradient id="paint0_linear_111_3559" x1="138.736" y1="0" x2="138.736" y2="123.079" gradientUnits="userSpaceOnUse">
<stop offset="0.131359" stop-color="#FF5C38"/>
<stop offset="0.943874" stop-color="#FF0D9E"/>
</linearGradient>
</defs>
</svg>
