<svg width="114" height="113" viewBox="0 0 114 113" fill="none" xmlns="http://www.w3.org/2000/svg">
<path fill-rule="evenodd" clip-rule="evenodd" d="M11.4009 1.94856V3.89711H13.301H15.2011V1.94856V0H13.301H11.4009V1.94856ZM19.0014 1.94856V3.89711H27.5521H36.1027V1.94856V0H27.5521H19.0014V1.94856ZM19.0014 9.74278V11.6913H20.9016H22.8017V9.74278V7.79422H20.9016H19.0014V9.74278ZM26.602 9.74278V11.6913H28.5021H30.4023V9.74278V7.79422H28.5021H26.602V9.74278ZM34.2026 9.74278V11.6913H39.903H45.6034V9.74278V7.79422H39.903H34.2026V9.74278ZM64.6562 12.1831C59.2809 13.6272 55.0531 17.9951 53.6724 23.531C52.5074 28.2019 53.6175 33.2906 56.6281 37.0805C57.2268 37.8344 57.7168 38.529 57.7168 38.6243C57.7168 38.7195 56.9675 40.131 56.0514 41.7605C52.4983 48.0818 51.3039 52.5011 51.3039 59.3267V62.3538H50.2944H49.285L49.3541 43.538C49.407 29.1667 49.3541 24.4634 49.1299 23.6262C48.7482 22.2011 46.8359 20.1995 45.4571 19.7817C44.0536 19.3565 9.15038 19.3565 7.74688 19.7817C6.4422 20.177 4.4746 22.1948 4.08911 23.5327C3.6744 24.972 3.6744 60.7645 4.08911 62.2037C4.4746 63.5417 6.4422 65.5594 7.74688 65.9547C8.43948 66.1644 11.3612 66.2509 17.7649 66.2509H26.8051L26.6737 67.5571C26.4901 69.3817 27.0592 71.0078 28.328 72.2834C29.7676 73.7306 30.8445 74.0451 34.3636 74.0451H37.315L35.8961 75.2559C32.4998 78.1544 29.7997 82.779 28.9948 87.0761C28.8442 87.8798 28.6696 88.784 28.6071 89.0855C28.4936 89.6316 28.4767 89.6335 23.7473 89.6335H19.0014V91.5821V93.5306H23.7518H28.5021V96.8298C28.5021 100.008 28.5235 100.151 29.0852 100.727C29.6458 101.302 29.7895 101.325 32.8328 101.325H35.9975L36.2564 103.01C37.2993 109.803 43.8771 114.339 50.225 112.643C54.6716 111.456 58.038 107.652 58.7508 103.01L59.0096 101.325H74.1056H89.2015L89.4604 103.01C90.5033 109.803 97.0811 114.339 103.429 112.643C109.45 111.035 113.288 104.632 111.787 98.6987L111.465 97.4278H112.154C112.578 97.4278 113.079 97.1854 113.459 96.7957C114.054 96.1856 114.07 96.093 113.922 94.1228C113.359 86.6079 108.104 80.2817 100.922 78.4715L99.1637 78.0284L96.4933 69.2777C95.0245 64.4648 93.8219 60.5102 93.8212 60.4897C93.8203 60.469 94.8273 60.4142 96.0591 60.3679C98.4706 60.2768 99.0734 60.014 100.099 58.6072C100.547 57.9922 100.595 57.5364 100.662 53.2211C100.73 48.8303 100.701 48.4382 100.237 47.5048C99.7041 46.4341 98.6602 45.6354 97.4985 45.4101C97.0265 45.3188 94.5043 45.8568 90.0822 46.9928L83.3814 48.7139H78.522C74.0987 48.7139 73.6517 48.6756 73.5405 48.2876C72.9242 46.1345 71.4929 40.9343 71.4929 40.848C71.4929 40.7876 71.8938 40.6702 72.3836 40.5867C74.9773 40.1453 77.6481 37.9169 78.9208 35.1327C79.6146 33.615 79.6787 33.256 79.7668 30.3853L79.8621 27.2798H80.9895C82.5263 27.2798 83.3697 26.6034 83.3659 25.3743C83.3574 22.6213 81.5959 18.8827 79.0889 16.2963C75.306 12.3933 69.758 10.8123 64.6562 12.1831ZM29.3235 27.6527C34.3646 28.9991 38.0029 33.7487 38.0029 38.9833C38.0029 43.36 35.0605 49.421 29.9398 55.5928C26.8585 59.3067 26.4015 59.3367 23.5974 56.0095C18.3133 49.7398 15.2011 43.4289 15.2011 38.9833C15.2011 31.5191 22.3438 25.7884 29.3235 27.6527ZM70.3053 29.2283V31.1769H72.2054H74.1056V29.2283V27.2798H75.0556H76.0057V29.6263C76.0057 32.7382 75.7003 33.6986 74.2324 35.2041C72.8862 36.5846 71.805 37.0225 69.7433 37.0225H68.4051V32.1512V27.2798H69.3552H70.3053V29.2283ZM24.8206 31.3883C20.7363 32.489 18.286 36.6789 19.2287 40.9503C19.8494 43.7614 22.8174 49.0678 25.8301 52.7523L26.602 53.6963L27.3739 52.7523C30.4971 48.9326 33.4316 43.6238 33.976 40.8088C34.9244 35.9041 31.7991 31.5758 27.1039 31.2914C26.24 31.239 25.2125 31.2826 24.8206 31.3883ZM28.1052 35.4062C30.5455 36.4519 31.1405 39.7327 29.2427 41.6791C27.7019 43.2589 25.5021 43.2589 23.9613 41.6791C21.0241 38.6669 24.2651 33.7609 28.1052 35.4062ZM62.2921 41.5132C64.192 42.375 66.3513 42.791 67.2066 42.46C67.8268 42.2198 67.9056 42.2478 68.0291 42.7523C68.1042 43.0592 68.2258 43.471 68.2994 43.6681C68.3956 43.9248 68.089 43.851 67.2128 43.4065C64.1911 41.873 60.5393 43.2835 59.194 46.504C58.6377 47.8361 58.7175 50.083 59.3676 51.3931C59.6778 52.0181 61.3354 53.9664 63.2253 55.9272L66.539 59.3649L65.9494 60.7986L65.3602 62.232L60.1991 62.2977L55.0381 62.3635L55.1673 58.2788C55.3604 52.1782 56.1739 49.3705 59.4381 43.538C60.244 42.098 60.9214 40.9197 60.9433 40.9197C60.9651 40.9197 61.572 41.1869 62.2921 41.5132ZM96.9073 52.8546V56.5081H93.0476H89.188V54.7422C89.188 53.5879 89.054 52.7096 88.801 52.2064L88.4141 51.4365L92.6013 50.3417C94.9043 49.7393 96.8154 49.2363 96.8479 49.2239C96.8804 49.2112 96.9073 50.8451 96.9073 52.8546ZM84.9233 53.209C85.291 53.5858 85.5064 54.0851 85.5064 54.5595C85.5064 55.034 85.291 55.5333 84.9233 55.9101C84.3858 56.4616 84.1637 56.5081 82.0731 56.5081H79.806V54.5595V52.611H82.0731C84.1637 52.611 84.3858 52.6575 84.9233 53.209ZM85.6525 70.1158L87.3512 79.7047L85.7563 84.6082L84.1614 89.5117L82.9336 89.5853L81.7061 89.6591V88.2739C81.7061 86.1303 81.2831 85.0435 79.8889 83.6052C79.2072 82.902 78.4902 82.3265 78.2954 82.3265C77.9928 82.3265 77.9301 81.414 77.8643 76.0545L77.7871 69.7826L77.0287 68.1407C75.7402 65.3514 73.0709 63.1271 70.4834 62.6867C69.4937 62.5182 69.397 62.2305 69.9571 61.1201L70.3212 60.3977L77.1375 60.4624L83.9538 60.527L85.6525 70.1158ZM93.6925 73.1926C95.8133 80.1587 97.6239 86.2752 97.716 86.7847C97.826 87.3927 97.7498 88.1836 97.4939 89.0857C97.1398 90.3353 96.7999 90.7771 93.7571 93.944L90.41 97.4278H88.9084H87.4066V94.6876V91.9477L89.3326 86.0224L91.2584 80.0973L89.5701 70.5241C88.6414 65.2588 87.8816 60.822 87.8816 60.6641C87.8816 60.4783 88.226 60.4035 88.859 60.4522L89.8364 60.527L93.6925 73.1926ZM51.3072 67.6514C51.3088 68.4218 51.3749 69.2984 51.4535 69.6L51.5967 70.148H41.5825H31.5683L30.9854 69.55C30.6177 69.1732 30.4023 68.6739 30.4023 68.1994C30.4023 67.725 30.6177 67.2256 30.9854 66.8488L31.5683 66.2509H41.4362H51.3039L51.3072 67.6514ZM66.505 77.9315V81.8176L54.926 81.8895L43.347 81.9611L41.7604 82.732C39.5527 83.8044 38.177 85.1855 37.1086 87.4017L36.2215 89.2419L36.1381 93.3348L36.0547 97.4278H34.1529H32.2511L32.359 92.8608C32.4794 87.7639 32.762 86.4204 34.3966 83.1789C35.5826 80.827 38.9263 77.401 41.2093 76.1985C43.0765 75.2152 44.8298 74.5846 46.4972 74.2967C47.1162 74.1898 51.8708 74.0894 57.0637 74.0738L66.505 74.0451V77.9315ZM77.3228 86.3344C77.8016 86.8252 77.9059 87.1735 77.9059 88.2829V89.6335H74.1056H70.3053V87.685V85.7364H73.5225C76.6218 85.7364 76.7613 85.7583 77.3228 86.3344ZM11.4009 91.5821V93.5306H13.301H15.2011V91.5821V89.6335H13.301H11.4009V91.5821ZM83.6063 95.4792V97.4278H76.9558H70.3053V95.4792V93.5306H76.9558H83.6063V95.4792ZM0 99.3763V101.325H1.90014H3.80029V99.3763V97.4278H1.90014H0V99.3763ZM7.60057 99.3763V101.325H16.1512H24.7019V99.3763V97.4278H16.1512H7.60057V99.3763ZM107.754 98.5847C108.425 100.367 108.326 103.055 107.532 104.639C106.617 106.468 105.894 107.237 104.223 108.161C102.856 108.916 102.551 108.988 100.708 108.988C98.8623 108.988 98.5595 108.917 97.1864 108.157C94.7594 106.815 93.439 104.753 93.179 101.896L93.0353 100.317L94.4295 98.8726L95.8235 97.4278H101.571H107.319L107.754 98.5847ZM98.8074 101.325V103.273H100.708H102.608V101.325V99.3763H100.708H98.8074V101.325ZM45.6034 102.299V103.273H47.5036H49.4037V102.299V101.325H52.281H55.1581L54.9899 102.474C54.8013 103.765 54.003 105.52 53.1107 106.608C52.7836 107.007 51.8423 107.705 51.0191 108.161C49.6524 108.916 49.3474 108.988 47.5036 108.988C45.6583 108.988 45.3555 108.917 43.9824 108.157C41.7416 106.918 40.3818 104.969 40.0168 102.471L39.8491 101.325H42.7261H45.6034V102.299ZM7.60057 107.171V109.119H9.50071H11.4009V107.171V105.222H9.50071H7.60057V107.171ZM15.2011 107.171V109.119H17.1013H19.0014V107.171V105.222H17.1013H15.2011V107.171ZM22.8017 107.171V109.119H28.5021H34.2026V107.171V105.222H28.5021H22.8017V107.171Z" fill="url(#paint0_linear_213_139)"/>
<defs>
<linearGradient id="paint0_linear_213_139" x1="57" y1="0" x2="57" y2="113" gradientUnits="userSpaceOnUse">
<stop offset="0.131359" stop-color="#FF5C38"/>
<stop offset="0.943874" stop-color="#FF0D9E"/>
</linearGradient>
</defs>
</svg>
