<svg width="278" height="164" viewBox="0 0 278 164" fill="none" xmlns="http://www.w3.org/2000/svg">
<path fill-rule="evenodd" clip-rule="evenodd" d="M17.8101 0.553148C9.92281 2.75724 3.69866 8.73149 1.07212 16.6193C-0.831733 22.3367 -0.146021 30.6098 2.70052 36.268C8.62081 48.0371 23.784 52.5177 33.5377 45.3808C34.5534 44.6372 35.488 44.0292 35.6138 44.0292C35.74 44.0292 35.8433 45.0538 35.8433 46.3062V48.5831H40.3516H44.8599V36.0599V23.5367H35.6178H26.3758V27.3915V31.2464L30.9603 31.3762C34.2649 31.4696 35.5998 31.6736 35.7418 32.1067C36.0249 32.9692 32.3475 36.3682 29.7305 37.6629C26.6481 39.188 21.1611 39.2435 18.4259 37.7772C8.59963 32.5101 8.65417 15.5938 18.5125 10.773C23.1019 8.52885 29.2336 9.936 32.9214 14.0796L34.9326 16.3388L38.7691 13.4685C40.8795 11.8901 42.6057 10.349 42.6057 10.0444C42.6057 8.89862 39.5572 5.48274 36.96 3.71811C35.4781 2.71124 33.1496 1.50992 31.7858 1.04861C28.3825 -0.103523 21.0849 -0.362185 17.8101 0.553148ZM62.6676 12.764C56.4989 14.3811 52.093 18.5993 50.0606 24.8332C48.8704 28.4836 49.2298 35.1805 50.8004 38.6192C52.9707 43.3703 57.0746 46.8909 62.1659 48.3686C65.8207 49.4301 72.4944 49.1146 76.0785 47.7115C83.4549 44.8234 88.0845 36.1892 86.7807 27.7527C85.8132 21.4924 82.5046 16.8579 77.0644 14.142C74.0123 12.6183 73.3198 12.4557 69.3174 12.3209C66.6836 12.2321 64.0183 12.4097 62.6676 12.764ZM70.866 21.7456C73.9744 22.9351 75.9414 26.3159 75.9572 30.4959C75.9784 36.1574 72.8271 39.9307 68.0776 39.9307C62.9724 39.9307 59.8197 35.7238 60.3093 29.5642C60.4897 27.2964 60.8409 26.1921 61.8309 24.7817C64.0147 21.6714 67.5591 20.4801 70.866 21.7456Z" fill="#FF0D9E"/>
<path fill-rule="evenodd" clip-rule="evenodd" d="M96 27.7129V48.4257H99.2499H102.5L102.6 34.0042L102.7 19.5826L108.615 30.5372L114.529 41.4922L116.439 41.3776L118.348 41.2633L124.117 30.5259L129.885 19.7886L129.985 34.1071L130.086 48.4257H133.53H136.975L136.876 27.8097L136.777 7.19358H133.331H129.885L123.211 19.6871C119.541 26.5584 116.41 32.0463 116.254 31.8825C116.097 31.7184 113.009 26.0531 109.392 19.2922L102.814 7H99.4069H96V27.7129ZM180.234 13.0009V17.8404H178.319H176.405V20.3569V22.8734H178.297H180.189L180.307 33.617C180.416 43.5731 180.482 44.4597 181.2 45.7156C182.815 48.5419 186.962 49.5195 191.863 48.2287C195.605 47.243 195.565 47.2933 194.876 44.4659C194.551 43.1302 194.251 41.992 194.21 41.9358C194.169 41.8797 193.511 42.0977 192.749 42.4198C190.645 43.3083 188.79 43.1747 187.683 42.0551L186.743 41.105V31.989V22.8734H190.016H193.288L193.174 20.4537L193.06 18.034L189.901 17.9217L186.743 17.809V12.9854V8.16147H183.488H180.234V13.0009ZM154.389 17.9898C142.999 20.7909 138.92 35.0967 146.903 44.2495C151.012 48.96 159.17 50.3677 165.218 47.4098C170.958 44.6026 174.507 37.4088 173.421 30.7819C171.902 21.5114 163.375 15.7803 154.389 17.9898ZM209.141 17.9898C199.555 20.3472 194.741 31.3359 199.23 40.6145C203.699 49.8501 216.581 51.9005 223.864 44.5356C229.86 38.4727 229.904 28.1511 223.959 22.1398C220.066 18.2039 214.552 16.6592 209.141 17.9898ZM262.988 17.8702C260.549 18.3549 257.544 20.209 256.283 22.0081C255.397 23.2702 255.148 24.0995 255.012 26.2266C254.698 31.1365 256.67 32.9976 265.039 35.6914C267.903 36.6128 270.582 37.6841 270.994 38.072C271.488 38.537 271.742 39.2869 271.742 40.2761C271.742 44.9738 263.505 45.4926 257.442 41.1766C256.422 40.4499 255.542 39.9106 255.488 39.9784C255.026 40.561 253.364 43.7377 253.364 44.0385C253.364 44.2499 254.114 44.9677 255.031 45.6332C260.965 49.9426 271.017 50.1041 275.512 45.9623C277.501 44.1291 278.431 40.8549 277.808 37.8815C277.168 34.8245 275.239 33.4563 268.147 31.0304C264.82 29.8922 261.937 28.6742 261.552 28.2444C260.508 27.0787 260.669 24.9892 261.898 23.7468C262.77 22.8645 263.324 22.6829 265.525 22.5571C268.754 22.3728 270.756 22.9005 273.156 24.5703L275.024 25.8692L276.304 23.9133C277.808 21.6155 277.704 21.2888 274.977 19.7332C271.438 17.7146 267.135 17.0459 262.988 17.8702ZM234.107 18.0831C233.959 18.2333 233.837 25.122 233.837 33.3913V48.4257H237.091H240.346V39.1146C240.346 29.0331 240.41 28.6668 242.513 26.6923C244.04 25.2591 245.804 24.4321 248.528 23.8715L250.875 23.3887L250.988 20.6144L251.1 17.8404L249.456 17.8443C248.539 17.8462 246.966 18.2492 245.898 18.7552C244.049 19.631 240.421 23.0898 240.275 24.115C240.235 24.3903 240.106 23.1347 239.988 21.3248L239.772 18.034L237.075 17.9217C235.591 17.8601 234.256 17.9329 234.107 18.0831ZM160.151 23.3059C162.322 23.8583 164.972 26.2033 166.121 28.5882C167.215 30.8577 167.313 35.4037 166.318 37.6678C165.433 39.6795 163.542 41.7485 161.733 42.6815C159.408 43.8809 155.558 43.5782 153.393 42.026C150.188 39.7287 148.46 34.4935 149.556 30.4001C150.473 26.9719 153.295 23.9551 156.249 23.2428C157.99 22.8231 158.273 22.8277 160.151 23.3059ZM216.472 23.8943C218.545 24.889 220.705 27.5847 221.419 30.0695C222.629 34.2756 221.516 38.4673 218.451 41.2541C216.348 43.1666 215.013 43.5797 211.808 43.311C208.337 43.0199 205.649 40.5022 204.483 36.4506C203.751 33.907 204.003 30.5089 205.083 28.3683C206.029 26.4945 208.97 23.7449 210.363 23.4332C210.954 23.3012 211.611 23.127 211.821 23.0465C212.501 22.7867 215.183 23.2757 216.472 23.8943Z" fill="#FF5C38"/>
<path fill-rule="evenodd" clip-rule="evenodd" d="M98.4008 65.7244V67.4488H100.134H101.868V65.7244V64H100.134H98.4008V65.7244ZM105.335 65.7244V67.4488H113.135H120.936V65.7244V64H113.135H105.335V65.7244ZM105.335 72.6219V74.3463H107.068H108.802V72.6219V70.8975H107.068H105.335V72.6219ZM112.268 72.6219V74.3463H114.002H115.735V72.6219V70.8975H114.002H112.268V72.6219ZM119.202 72.6219V74.3463H124.403H129.603V72.6219V70.8975H124.403H119.202V72.6219ZM146.985 74.7815C142.081 76.0595 138.224 79.9249 136.964 84.8239C135.901 88.9575 136.914 93.4607 139.661 96.8146C140.207 97.4817 140.654 98.0965 140.654 98.1808C140.654 98.265 139.97 99.5141 139.135 100.956C135.893 106.55 134.804 110.461 134.804 116.501V119.18H133.883H132.962L133.025 102.529C133.073 89.8112 133.025 85.649 132.82 84.9082C132.472 83.647 130.727 81.8756 129.47 81.506C128.189 81.1296 96.3477 81.1296 95.0673 81.506C93.8771 81.8558 92.0821 83.6414 91.7304 84.8254C91.3521 86.0991 91.3521 117.774 91.7304 119.048C92.0821 120.232 93.8771 122.017 95.0673 122.367C95.6992 122.553 98.3646 122.629 104.207 122.629H112.454L112.334 123.785C112.166 125.4 112.686 126.839 113.843 127.968C115.156 129.248 116.139 129.527 119.349 129.527H122.042L120.747 130.598C117.649 133.163 115.186 137.256 114.451 141.058C114.314 141.77 114.155 142.57 114.098 142.837C113.994 143.32 113.979 143.322 109.664 143.322H105.335V145.046V146.77H109.668H114.002V149.69C114.002 152.503 114.021 152.629 114.534 153.139C115.045 153.648 115.176 153.668 117.953 153.668H120.84L121.076 155.16C122.027 161.171 128.028 165.185 133.819 163.684C137.876 162.633 140.947 159.267 141.597 155.16L141.833 153.668H155.605H169.377L169.613 155.16C170.564 161.171 176.565 165.185 182.356 163.684C187.849 162.261 191.35 156.595 189.981 151.344L189.688 150.219H190.316C190.703 150.219 191.16 150.005 191.506 149.66C192.049 149.12 192.064 149.038 191.929 147.294C191.415 140.644 186.621 135.046 180.069 133.444L178.465 133.052L176.029 125.308C174.689 121.048 173.592 117.549 173.591 117.531C173.59 117.512 174.509 117.464 175.633 117.423C177.833 117.342 178.383 117.11 179.318 115.865C179.728 115.321 179.771 114.917 179.832 111.098C179.894 107.213 179.868 106.866 179.444 106.04C178.958 105.092 178.006 104.385 176.946 104.186C176.515 104.105 174.214 104.581 170.18 105.587L164.067 107.11H159.634C155.599 107.11 155.191 107.076 155.09 106.732C154.527 104.827 153.222 100.225 153.222 100.149C153.222 100.095 153.587 99.9914 154.034 99.9174C156.4 99.5269 158.837 97.5548 159.998 95.0909C160.631 93.7478 160.689 93.4301 160.77 90.8896L160.857 88.1414H161.885C163.287 88.1414 164.057 87.5428 164.053 86.4552C164.045 84.0188 162.438 80.7104 160.151 78.4215C156.7 74.9675 151.639 73.5684 146.985 74.7815ZM114.751 88.4714C119.35 89.6629 122.669 93.8661 122.669 98.4985C122.669 102.372 119.985 107.735 115.314 113.197C112.503 116.484 112.086 116.51 109.527 113.566C104.707 108.018 101.868 102.433 101.868 98.4985C101.868 91.893 108.384 86.8216 114.751 88.4714ZM152.138 89.8658V91.5902H153.872H155.605V89.8658V88.1414H156.472H157.339V90.218C157.339 92.9718 157.06 93.8217 155.721 95.154C154.493 96.3758 153.506 96.7633 151.625 96.7633H150.405V92.4524V88.1414H151.271H152.138V89.8658ZM110.643 91.7773C106.917 92.7513 104.682 96.4592 105.542 100.239C106.108 102.727 108.816 107.423 111.564 110.683L112.268 111.519L112.973 110.683C115.822 107.303 118.499 102.605 118.996 100.114C119.861 95.7735 117.01 91.9432 112.726 91.6915C111.938 91.6451 111.001 91.6837 110.643 91.7773ZM113.64 95.3329C115.866 96.2583 116.409 99.1617 114.678 100.884C113.272 102.282 111.265 102.282 109.859 100.884C107.18 98.2185 110.137 93.8769 113.64 95.3329ZM144.828 100.737C146.561 101.5 148.531 101.868 149.311 101.575C149.877 101.363 149.949 101.387 150.062 101.834C150.13 102.105 150.241 102.47 150.308 102.644C150.396 102.872 150.116 102.806 149.317 102.413C146.56 101.056 143.229 102.304 142.002 105.154C141.494 106.333 141.567 108.321 142.16 109.481C142.443 110.034 143.955 111.758 145.679 113.493L148.702 116.535L148.164 117.804L147.627 119.073L142.919 119.131L138.21 119.189L138.328 115.574C138.504 110.175 139.246 107.691 142.224 102.529C142.959 101.255 143.577 100.212 143.597 100.212C143.617 100.212 144.171 100.449 144.828 100.737ZM176.407 110.774V114.007H172.886H169.364V112.444C169.364 111.423 169.242 110.646 169.011 110.2L168.658 109.519L172.478 108.55C174.579 108.017 176.323 107.572 176.352 107.561C176.382 107.55 176.407 108.996 176.407 110.774ZM165.474 111.088C165.809 111.421 166.006 111.863 166.006 112.283C166.006 112.703 165.809 113.145 165.474 113.478C164.984 113.966 164.781 114.007 162.874 114.007H160.805V112.283V110.558H162.874C164.781 110.558 164.984 110.6 165.474 111.088ZM166.139 126.049L167.689 134.535L166.234 138.875L164.779 143.214L163.659 143.279L162.539 143.344V142.119C162.539 140.221 162.153 139.26 160.881 137.987C160.259 137.365 159.605 136.855 159.427 136.855C159.151 136.855 159.094 136.048 159.034 131.305L158.964 125.755L158.272 124.302C157.096 121.833 154.661 119.865 152.301 119.475C151.398 119.326 151.31 119.071 151.82 118.089L152.153 117.449L158.371 117.507L164.589 117.564L166.139 126.049ZM173.474 128.772C175.409 134.937 177.06 140.35 177.144 140.801C177.245 141.339 177.175 142.039 176.942 142.837C176.619 143.943 176.309 144.334 173.533 147.136L170.479 150.219H169.109H167.739V147.794V145.37L169.496 140.126L171.253 134.883L169.713 126.411C168.866 121.751 168.173 117.825 168.173 117.685C168.173 117.521 168.487 117.454 169.064 117.498L169.956 117.564L173.474 128.772ZM134.807 123.868C134.808 124.55 134.868 125.326 134.94 125.593L135.071 126.078H125.935H116.799L116.267 125.549C115.932 125.215 115.735 124.773 115.735 124.353C115.735 123.934 115.932 123.492 116.267 123.158L116.799 122.629H125.801H134.804L134.807 123.868ZM148.671 132.966V136.405L138.108 136.469L127.545 136.532L126.097 137.214C124.083 138.163 122.828 139.385 121.853 141.347L121.044 142.975L120.968 146.597L120.892 150.219H119.157H117.422L117.52 146.178C117.63 141.667 117.888 140.478 119.379 137.61C120.461 135.528 123.512 132.496 125.594 131.432C127.298 130.562 128.897 130.004 130.419 129.749C130.983 129.655 135.321 129.566 140.058 129.552L148.671 129.527V132.966ZM158.54 140.402C158.977 140.836 159.072 141.145 159.072 142.126V143.322H155.605H152.138V141.597V139.873H155.073C157.901 139.873 158.028 139.892 158.54 140.402ZM98.4008 145.046V146.77H100.134H101.868V145.046V143.322H100.134H98.4008V145.046ZM164.272 148.495V150.219H158.205H152.138V148.495V146.77H158.205H164.272V148.495ZM88 151.944V153.668H89.7335H91.4669V151.944V150.219H89.7335H88V151.944ZM94.9339 151.944V153.668H102.734H110.535V151.944V150.219H102.734H94.9339V151.944ZM186.302 151.243C186.914 152.82 186.824 155.199 186.1 156.601C185.264 158.219 184.605 158.9 183.081 159.717C181.834 160.386 181.556 160.45 179.874 160.45C178.19 160.45 177.914 160.386 176.661 159.715C174.447 158.527 173.243 156.701 173.005 154.173L172.874 152.776L174.146 151.498L175.418 150.219H180.661H185.905L186.302 151.243ZM178.14 153.668V155.392H179.874H181.607V153.668V151.944H179.874H178.14V153.668ZM129.603 154.53V155.392H131.337H133.07V154.53V153.668H135.695H138.32L138.166 154.685C137.994 155.827 137.266 157.381 136.452 158.343C136.153 158.696 135.295 159.315 134.544 159.717C133.297 160.386 133.019 160.45 131.337 160.45C129.653 160.45 129.377 160.386 128.124 159.715C126.08 158.618 124.84 156.893 124.507 154.683L124.354 153.668H126.978H129.603V154.53ZM94.9339 158.841V160.566H96.6673H98.4008V158.841V157.117H96.6673H94.9339V158.841ZM101.868 158.841V160.566H103.601H105.335V158.841V157.117H103.601H101.868V158.841ZM108.802 158.841V160.566H114.002H119.202V158.841V157.117H114.002H108.802V158.841Z" fill="url(#paint0_linear_267_258)"/>
<defs>
<linearGradient id="paint0_linear_267_258" x1="140" y1="64" x2="140" y2="164" gradientUnits="userSpaceOnUse">
<stop offset="0.131359" stop-color="#FF5C38"/>
<stop offset="0.943874" stop-color="#FF0D9E"/>
</linearGradient>
</defs>
</svg>
