<svg width="68" height="42" viewBox="0 0 68 42" fill="none" xmlns="http://www.w3.org/2000/svg">
<path fill-rule="evenodd" clip-rule="evenodd" d="M4.35642 1.08501C2.42716 1.62414 0.904707 3.08547 0.262245 5.01486C-0.203445 6.41337 -0.0357174 8.43699 0.660558 9.82102C2.10869 12.6998 5.81767 13.7958 8.20347 12.0501C8.45192 11.8682 8.68052 11.7194 8.71129 11.7194C8.74216 11.7194 8.76742 11.9701 8.76742 12.2764V12.8333H9.87017H10.9729V9.77011V6.70688H8.71228H6.45164V7.6498V8.59272L7.57303 8.62446C8.38134 8.6473 8.70787 8.6972 8.74261 8.80313C8.81186 9.01411 7.91235 9.84552 7.2722 10.1622C6.51825 10.5353 5.1761 10.5488 4.50706 10.1902C2.10351 8.90183 2.11685 4.76401 4.52823 3.58483C5.65083 3.0359 7.15068 3.3801 8.05273 4.39364L8.54466 4.94624L9.4831 4.24415C9.9993 3.85807 10.4215 3.48113 10.4215 3.40661C10.4215 3.12635 9.67586 2.29081 9.04057 1.85917C8.67809 1.61289 8.10852 1.31904 7.77494 1.2062C6.94248 0.924385 5.15746 0.861115 4.35642 1.08501ZM15.3288 4.07183C13.8199 4.46738 12.7422 5.49919 12.245 7.02401C11.9539 7.91691 12.0418 9.55502 12.426 10.3961C12.9569 11.5583 13.9607 12.4194 15.206 12.7809C16.1 13.0405 17.7324 12.9633 18.6091 12.6201C20.4134 11.9137 21.5459 9.80175 21.2269 7.73813C20.9903 6.20685 20.181 5.07323 18.8503 4.4089C18.1037 4.03619 17.9343 3.99642 16.9553 3.96345C16.3111 3.94173 15.6592 3.98517 15.3288 4.07183ZM17.3341 6.26878C18.0945 6.55973 18.5756 7.38669 18.5795 8.40915C18.5846 9.79395 17.8138 10.7169 16.6521 10.7169C15.4033 10.7169 14.6322 9.68791 14.7519 8.18124C14.796 7.62652 14.8819 7.3564 15.1241 7.01142C15.6583 6.25062 16.5253 5.95923 17.3341 6.26878Z" fill="#FF0D9E"/>
<path fill-rule="evenodd" clip-rule="evenodd" d="M23.4822 7.72844V12.7949H24.2771H25.0721L25.0966 9.26732L25.1211 5.73974L26.5678 8.41928L28.0145 11.0989L28.4816 11.0709L28.9487 11.0429L30.3597 8.41653L31.7706 5.79012L31.7951 9.29251L31.8197 12.7949H32.6623H33.5049L33.4806 7.75212L33.4564 2.70934H32.6135H31.7706L30.1382 5.76531C29.2403 7.44605 28.4745 8.78842 28.4363 8.74836C28.398 8.70821 27.6428 7.32246 26.7578 5.66872L25.1488 2.66199H24.3155H23.4822V7.72844ZM44.0861 4.12984V5.31359H43.6178H43.1496V5.92914V6.54469H43.6124H44.0752L44.1041 9.17262C44.1308 11.6079 44.1468 11.8248 44.3224 12.132C44.7175 12.8233 45.732 13.0624 46.9306 12.7467C47.846 12.5056 47.8362 12.5179 47.6677 11.8263C47.5882 11.4996 47.5149 11.2212 47.5048 11.2074C47.4946 11.1937 47.3338 11.247 47.1473 11.3258C46.6328 11.5432 46.1789 11.5105 45.9081 11.2366L45.6782 11.0042V8.77441V6.54469H46.4788H47.2792L47.2514 5.95282L47.2235 5.36094L46.4509 5.33348L45.6782 5.30592V4.12605V2.94609H44.8822H44.0861V4.12984ZM37.7644 5.35015C34.9782 6.0353 33.9806 9.53456 35.9333 11.7734C36.9383 12.9256 38.9338 13.2699 40.4133 12.5464C41.8172 11.8597 42.6853 10.1001 42.4197 8.47913C42.0481 6.21154 39.9624 4.80969 37.7644 5.35015ZM51.157 5.35015C48.8121 5.92677 47.6346 8.61465 48.7328 10.8842C49.8258 13.1433 52.9767 13.6448 54.7582 11.8434C56.2248 10.3603 56.2356 7.83564 54.7815 6.36524C53.8293 5.40251 52.4805 5.02466 51.157 5.35015ZM64.3282 5.32088C63.7315 5.43945 62.9966 5.89297 62.688 6.33304C62.4715 6.64176 62.4104 6.84461 62.3771 7.36489C62.3003 8.56588 62.7828 9.0211 64.8299 9.68002C65.5303 9.90541 66.1857 10.1674 66.2864 10.2623C66.4072 10.3761 66.4695 10.5595 66.4695 10.8015C66.4695 11.9506 64.4546 12.0775 62.9717 11.0217C62.722 10.844 62.5069 10.7121 62.4937 10.7286C62.3806 10.8712 61.9741 11.6482 61.9741 11.7218C61.9741 11.7735 62.1575 11.949 62.3817 12.1118C63.8333 13.1659 66.2922 13.2054 67.3915 12.1923C67.878 11.7439 68.1057 10.943 67.9533 10.2157C67.7966 9.46799 67.3247 9.13332 65.5901 8.53993C64.7762 8.26151 64.071 7.96358 63.9769 7.85847C63.7216 7.57333 63.761 7.06223 64.0615 6.75834C64.275 6.54251 64.4104 6.4981 64.9486 6.46732C65.7386 6.42224 66.2282 6.55132 66.8153 6.95976L67.2722 7.27748L67.5853 6.79906C67.9531 6.23701 67.9277 6.15708 67.2606 5.77658C66.395 5.28281 65.3425 5.11927 64.3282 5.32088ZM57.2638 5.37297C57.2275 5.40971 57.1977 7.09471 57.1977 9.11741V12.7949H57.9938H58.7898V10.5174C58.7898 8.05137 58.8055 7.96178 59.32 7.47881C59.6934 7.12823 60.1248 6.92596 60.7911 6.78883L61.3653 6.67074L61.3928 5.99212L61.4204 5.31359L61.0182 5.31454C60.7939 5.31501 60.409 5.41359 60.1478 5.53737C59.6956 5.75158 58.8081 6.59763 58.7724 6.8484C58.7627 6.91573 58.7312 6.60861 58.7022 6.16589L58.6493 5.36094L57.9896 5.33348C57.6268 5.31842 57.3002 5.33622 57.2638 5.37297ZM39.1738 6.65047C39.7049 6.78561 40.353 7.35921 40.6341 7.94256C40.9016 8.49769 40.9256 9.60966 40.6822 10.1635C40.4659 10.6555 40.0032 11.1616 39.5608 11.3898C38.9922 11.6832 38.0504 11.6092 37.5207 11.2295C36.7367 10.6676 36.3141 9.38702 36.5822 8.38576C36.8065 7.54719 37.4967 6.80928 38.2194 6.63504C38.6453 6.53238 38.7145 6.53352 39.1738 6.65047ZM52.9502 6.79442C53.4573 7.0377 53.9856 7.6971 54.1603 8.30488C54.4562 9.33371 54.184 10.359 53.4342 11.0407C52.9198 11.5085 52.5933 11.6095 51.8094 11.5438C50.9603 11.4726 50.3027 10.8568 50.0175 9.86573C49.8384 9.24355 49.9003 8.41237 50.1644 7.88877C50.3957 7.43042 51.1152 6.75786 51.4558 6.68163C51.6005 6.64934 51.7611 6.60672 51.8126 6.58702C51.9787 6.52348 52.6349 6.64309 52.9502 6.79442Z" fill="#FF5C38"/>
<path fill-rule="evenodd" clip-rule="evenodd" d="M24.0692 17.0262V17.448H24.4932H24.9172V17.0262V16.6044H24.4932H24.0692V17.0262ZM25.7653 17.0262V17.448H27.6733H29.5814V17.0262V16.6044H27.6733H25.7653V17.0262ZM25.7653 18.7133V19.1351H26.1893H26.6133V18.7133V18.2915H26.1893H25.7653V18.7133ZM27.4613 18.7133V19.1351H27.8853H28.3093V18.7133V18.2915H27.8853H27.4613V18.7133ZM29.1574 18.7133V19.1351H30.4294H31.7015V18.7133V18.2915H30.4294H29.1574V18.7133ZM35.953 19.2416C34.7535 19.5542 33.8101 20.4997 33.502 21.698C33.242 22.7091 33.4898 23.8106 34.1616 24.631C34.2952 24.7941 34.4045 24.9445 34.4045 24.9651C34.4045 24.9857 34.2373 25.2913 34.0329 25.644C33.24 27.0124 32.9735 27.969 32.9735 29.4465V30.1017H32.7482H32.523L32.5384 26.0288C32.5502 22.9179 32.5384 21.8998 32.4884 21.7186C32.4032 21.4101 31.9765 20.9768 31.6688 20.8864C31.3556 20.7943 23.567 20.7943 23.2538 20.8864C22.9627 20.972 22.5236 21.4087 22.4376 21.6984C22.3451 22.0099 22.3451 29.7577 22.4376 30.0692C22.5236 30.3589 22.9627 30.7956 23.2538 30.8812C23.4084 30.9266 24.0604 30.9453 25.4893 30.9453H27.5066L27.4773 31.2281C27.4364 31.623 27.5634 31.975 27.8465 32.2511C28.1677 32.5644 28.408 32.6325 29.1933 32.6325H29.8519L29.5353 32.8946C28.7774 33.522 28.1749 34.523 27.9953 35.4532C27.9617 35.6272 27.9227 35.8229 27.9088 35.8882C27.8834 36.0064 27.8797 36.0068 26.8243 36.0068H25.7653V36.4286V36.8504H26.8253H27.8853V37.5645C27.8853 38.2525 27.8901 38.2835 28.0155 38.4081C28.1405 38.5326 28.1726 38.5376 28.8517 38.5376H29.5579L29.6157 38.9024C29.8484 40.3727 31.3162 41.3546 32.7328 40.9876C33.725 40.7305 34.4762 39.9071 34.6352 38.9024L34.693 38.5376H38.0616H41.4303L41.488 38.9024C41.7208 40.3727 43.1886 41.3546 44.6051 40.9876C45.9486 40.6395 46.805 39.2534 46.4701 37.9691L46.3984 37.694H46.5521C46.6468 37.694 46.7585 37.6415 46.8433 37.5572C46.976 37.4251 46.9796 37.405 46.9466 36.9786C46.8209 35.3519 45.6483 33.9825 44.0456 33.5906L43.6533 33.4947L43.0574 31.6005C42.7296 30.5587 42.4613 29.7026 42.4611 29.6982C42.4609 29.6937 42.6857 29.6819 42.9605 29.6719C43.4986 29.6521 43.6332 29.5952 43.862 29.2907C43.9621 29.1576 43.9727 29.0589 43.9877 28.1248C44.0029 27.1744 43.9964 27.0895 43.8928 26.8874C43.7739 26.6557 43.5409 26.4828 43.2817 26.434C43.1764 26.4143 42.6136 26.5307 41.6268 26.7766L40.1315 27.1492H39.0472C38.0601 27.1492 37.9604 27.1409 37.9355 27.0569C37.798 26.5908 37.4786 25.4652 37.4786 25.4465C37.4786 25.4334 37.5681 25.408 37.6774 25.3899C38.2562 25.2944 38.8522 24.812 39.1361 24.2093C39.291 23.8808 39.3053 23.8031 39.3249 23.1817L39.3462 22.5095H39.5978C39.9407 22.5095 40.1289 22.363 40.1281 22.097C40.1262 21.5011 39.7331 20.6918 39.1737 20.1319C38.3295 19.2871 37.0915 18.9448 35.953 19.2416ZM28.0686 22.5902C29.1935 22.8816 30.0054 23.9098 30.0054 25.0428C30.0054 25.9902 29.3488 27.3022 28.2062 28.6382C27.5186 29.4421 27.4166 29.4486 26.7909 28.7284C25.6117 27.3712 24.9172 26.0052 24.9172 25.0428C24.9172 23.4271 26.5111 22.1866 28.0686 22.5902ZM37.2136 22.9313V23.353H37.6376H38.0616V22.9313V22.5095H38.2736H38.4857V23.0174C38.4857 23.691 38.4175 23.8989 38.0899 24.2248C37.7895 24.5236 37.5483 24.6184 37.0882 24.6184H36.7896V23.5639V22.5095H37.0016H37.2136V22.9313ZM27.0638 23.3988C26.1524 23.6371 25.6056 24.544 25.816 25.4686C25.9545 26.0771 26.6168 27.2258 27.2891 28.0233L27.4613 28.2277L27.6336 28.0233C28.3305 27.1965 28.9853 26.0473 29.1068 25.438C29.3184 24.3763 28.6211 23.4394 27.5733 23.3778C27.3805 23.3665 27.1513 23.3759 27.0638 23.3988ZM27.7968 24.2685C28.3413 24.4949 28.4741 25.2051 28.0506 25.6264C27.7068 25.9684 27.2159 25.9684 26.8721 25.6264C26.2166 24.9744 26.9398 23.9124 27.7968 24.2685ZM35.4255 25.5905C35.8495 25.777 36.3313 25.8671 36.5222 25.7954C36.6605 25.7434 36.6781 25.7495 36.7057 25.8587C36.7224 25.9251 36.7496 26.0143 36.766 26.0569C36.7875 26.1125 36.7191 26.0965 36.5235 26.0003C35.8492 25.6684 35.0343 25.9737 34.7341 26.6708C34.61 26.9592 34.6278 27.4455 34.7729 27.7291C34.8421 27.8644 35.212 28.2862 35.6337 28.7106L36.3732 29.4547L36.2416 29.7651L36.1101 30.0754L34.9585 30.0896L33.8068 30.1038L33.8356 29.2196C33.8787 27.8991 34.0602 27.2913 34.7886 26.0288C34.9685 25.7171 35.1196 25.462 35.1245 25.462C35.1294 25.462 35.2648 25.5198 35.4255 25.5905ZM43.1498 28.0455V28.8363H42.2885H41.4272V28.4541C41.4272 28.2042 41.3973 28.0141 41.3409 27.9052L41.2546 27.7385L42.1889 27.5015C42.7028 27.3711 43.1293 27.2623 43.1365 27.2596C43.1438 27.2568 43.1498 27.6105 43.1498 28.0455ZM40.4756 28.1222C40.5576 28.2038 40.6057 28.3118 40.6057 28.4145C40.6057 28.5173 40.5576 28.6253 40.4756 28.7069C40.3557 28.8263 40.3061 28.8363 39.8396 28.8363H39.3337V28.4145V27.9928H39.8396C40.3061 27.9928 40.3557 28.0028 40.4756 28.1222ZM40.6383 31.7819L41.0174 33.8576L40.6615 34.919L40.3056 35.9804L40.0316 35.9964L39.7577 36.0123V35.7125C39.7577 35.2485 39.6633 35.0132 39.3522 34.7019C39.2001 34.5497 39.0401 34.4251 38.9966 34.4251C38.9291 34.4251 38.9151 34.2276 38.9004 33.0674L38.8832 31.7098L38.7139 31.3544C38.4264 30.7506 37.8308 30.2691 37.2534 30.1738C37.0325 30.1373 37.0109 30.075 37.1359 29.8347L37.2172 29.6783L38.7382 29.6923L40.2592 29.7063L40.6383 31.7819ZM42.4324 32.4479C42.9057 33.9558 43.3097 35.2798 43.3303 35.3901C43.3548 35.5217 43.3378 35.6929 43.2807 35.8882C43.2017 36.1587 43.1258 36.2543 42.4468 36.9399L41.6999 37.694H41.3649H41.0297V37.1008V36.5077L41.4595 35.2251L41.8893 33.9426L41.5125 31.8703C41.3053 30.7306 41.1357 29.7701 41.1357 29.736C41.1357 29.6957 41.2126 29.6796 41.3538 29.6901L41.5719 29.7063L42.4324 32.4479ZM32.9742 31.2485C32.9746 31.4152 32.9893 31.605 33.0069 31.6703L33.0388 31.7889H30.8042H28.5695L28.4395 31.6594C28.3574 31.5779 28.3093 31.4698 28.3093 31.3671C28.3093 31.2644 28.3574 31.1563 28.4395 31.0747L28.5695 30.9453H30.7715H32.9735L32.9742 31.2485ZM36.3656 33.4737V34.3149L33.7818 34.3305L31.1979 34.346L30.8439 34.5129C30.3512 34.745 30.0442 35.044 29.8058 35.5237L29.6079 35.922L29.5893 36.808L29.5707 37.694H29.1463H28.7219L28.746 36.7054C28.7728 35.6021 28.8359 35.3113 29.2007 34.6096C29.4653 34.1005 30.2115 33.3589 30.7209 33.0986C31.1376 32.8858 31.5288 32.7493 31.9009 32.6869C32.039 32.6638 33.1 32.6421 34.2588 32.6387L36.3656 32.6325V33.4737ZM38.7795 35.2927C38.8864 35.3989 38.9097 35.4743 38.9097 35.7144V36.0068H38.0616H37.2136V35.585V35.1632H37.9315C38.6231 35.1632 38.6543 35.168 38.7795 35.2927ZM24.0692 36.4286V36.8504H24.4932H24.9172V36.4286V36.0068H24.4932H24.0692V36.4286ZM40.1817 37.2722V37.694H38.6977H37.2136V37.2722V36.8504H38.6977H40.1817V37.2722ZM21.5251 38.1158V38.5376H21.9492H22.3732V38.1158V37.694H21.9492H21.5251V38.1158ZM23.2212 38.1158V38.5376H25.1293H27.0373V38.1158V37.694H25.1293H23.2212V38.1158ZM45.5702 37.9444C45.7198 38.3301 45.6979 38.912 45.5208 39.255C45.3164 39.6508 45.1552 39.8172 44.7823 40.0173C44.4773 40.1809 44.4093 40.1964 43.9978 40.1964C43.586 40.1964 43.5185 40.1809 43.2121 40.0166C42.6705 39.7261 42.3759 39.2795 42.3178 38.6612L42.2858 38.3194L42.5969 38.0067L42.9079 37.694H44.1905H45.4731L45.5702 37.9444ZM43.5738 38.5376V38.9593H43.9978H44.4218V38.5376V38.1158H43.9978H43.5738V38.5376ZM31.7015 38.7485V38.9593H32.1255H32.5495V38.7485V38.5376H33.1915H33.8335L33.796 38.7864C33.7539 39.0657 33.5758 39.4457 33.3767 39.6812C33.3037 39.7674 33.0936 39.9187 32.9099 40.0173C32.605 40.1809 32.5369 40.1964 32.1255 40.1964C31.7137 40.1964 31.6461 40.1809 31.3397 40.0166C30.8397 39.7484 30.5363 39.3264 30.4548 38.7857L30.4174 38.5376H31.0594H31.7015V38.7485ZM23.2212 39.8029V40.2247H23.6452H24.0692V39.8029V39.3811H23.6452H23.2212V39.8029ZM24.9172 39.8029V40.2247H25.3413H25.7653V39.8029V39.3811H25.3413H24.9172V39.8029ZM26.6133 39.8029V40.2247H27.8853H29.1574V39.8029V39.3811H27.8853H26.6133V39.8029Z" fill="url(#paint0_linear_267_258)"/>
<defs>
<linearGradient id="paint0_linear_267_258" x1="34.2446" y1="16.6044" x2="34.2446" y2="41.0648" gradientUnits="userSpaceOnUse">
<stop offset="0.131359" stop-color="#FF5C38"/>
<stop offset="0.943874" stop-color="#FF0D9E"/>
</linearGradient>
</defs>
</svg>
