<svg width="344" height="235" viewBox="0 0 344 235" fill="none" xmlns="http://www.w3.org/2000/svg">
<path fill-rule="evenodd" clip-rule="evenodd" d="M23.3918 174.385C13.4611 177.132 5.62433 184.579 2.3173 194.411C-0.0798149 201.538 0.783554 211.85 4.36759 218.903C11.8217 233.573 30.9135 239.158 43.1942 230.262C44.4731 229.335 45.6498 228.577 45.8082 228.577C45.9671 228.577 46.0971 229.854 46.0971 231.415V234.253H51.7734H57.4498V218.643V203.033H45.8133H34.1768V207.838V212.643L39.9491 212.805C44.1098 212.922 45.7906 213.176 45.9694 213.716C46.3259 214.791 41.6957 219.028 38.4006 220.641C34.5197 222.542 27.611 222.612 24.1672 220.784C11.7951 214.219 11.8637 193.133 24.2762 187.124C30.0547 184.327 37.775 186.081 42.4183 191.245L44.9505 194.061L49.781 190.484C52.4381 188.516 54.6116 186.595 54.6116 186.216C54.6116 184.787 50.7733 180.53 47.5031 178.33C45.6373 177.075 42.7055 175.578 40.9884 175.003C36.7034 173.567 27.5151 173.244 23.3918 174.385ZM79.8713 189.606C72.1043 191.621 66.5569 196.879 63.998 204.65C62.4994 209.2 62.9518 217.547 64.9295 221.833C67.662 227.756 72.8292 232.144 79.2395 233.986C83.8413 235.309 92.244 234.916 96.7566 233.167C106.044 229.567 111.873 218.805 110.232 208.289C109.014 200.485 104.848 194.709 97.9981 191.323C94.1552 189.424 93.2833 189.221 88.2439 189.053C84.9277 188.943 81.5719 189.164 79.8713 189.606ZM90.1937 200.801C94.1075 202.284 96.5841 206.498 96.6039 211.708C96.6306 218.765 92.6629 223.468 86.6829 223.468C80.255 223.468 76.2855 218.224 76.902 210.547C77.129 207.72 77.5712 206.343 78.8177 204.585C81.5674 200.708 86.0301 199.224 90.1937 200.801Z" fill="#FF0D9E"/>
<path fill-rule="evenodd" clip-rule="evenodd" d="M115.629 208.532V234.286H119.694H123.758L123.884 216.354L124.009 198.423L131.406 212.044L138.803 225.665L141.191 225.522L143.58 225.38L150.794 212.03L158.008 198.679L158.133 216.482L158.259 234.286H162.567H166.875L166.751 208.652L166.627 183.018H162.318H158.008L149.661 198.553C145.071 207.096 141.155 213.92 140.96 213.716C140.764 213.512 136.902 206.468 132.378 198.062L124.151 182.778H119.89H115.629V208.532ZM220.977 190.239V196.256H218.583H216.189V199.385V202.514H218.555H220.922L221.069 215.873C221.206 228.252 221.288 229.355 222.185 230.916C224.206 234.43 229.393 235.646 235.521 234.041C240.202 232.815 240.152 232.878 239.29 229.362C238.884 227.702 238.509 226.286 238.457 226.216C238.405 226.147 237.583 226.418 236.629 226.818C233.999 227.923 231.678 227.757 230.293 226.365L229.118 225.183V213.849V202.514H233.211H237.304L237.162 199.506L237.019 196.497L233.068 196.358L229.118 196.217V190.22V184.222H225.048H220.977V190.239ZM188.655 196.442C174.409 199.925 169.308 217.713 179.292 229.093C184.431 234.95 194.634 236.701 202.198 233.023C209.377 229.532 213.815 220.588 212.457 212.348C210.557 200.821 199.893 193.695 188.655 196.442ZM257.131 196.442C245.141 199.373 239.121 213.037 244.736 224.573C250.324 236.057 266.435 238.606 275.544 229.449C283.043 221.91 283.098 209.077 275.663 201.602C270.794 196.709 263.898 194.788 257.131 196.442ZM324.476 196.294C321.424 196.896 317.667 199.202 316.089 201.439C314.982 203.008 314.67 204.039 314.5 206.684C314.107 212.789 316.573 215.103 327.041 218.452C330.622 219.598 333.973 220.93 334.487 221.412C335.105 221.99 335.424 222.923 335.424 224.153C335.424 229.994 325.121 230.639 317.539 225.272C316.263 224.369 315.163 223.698 315.095 223.783C314.517 224.507 312.439 228.457 312.439 228.831C312.439 229.094 313.377 229.986 314.523 230.814C321.945 236.172 334.517 236.373 340.138 231.223C342.626 228.943 343.79 224.872 343.011 221.175C342.209 217.374 339.796 215.673 330.928 212.657C326.766 211.242 323.16 209.727 322.679 209.193C321.374 207.743 321.575 205.145 323.112 203.6C324.203 202.503 324.895 202.278 327.647 202.121C331.687 201.892 334.19 202.548 337.192 204.624L339.528 206.239L341.129 203.807C343.01 200.95 342.88 200.544 339.469 198.61C335.043 196.1 329.661 195.269 324.476 196.294ZM288.355 196.558C288.169 196.745 288.017 205.31 288.017 215.592V234.286H292.087H296.157V222.709C296.157 210.173 296.237 209.718 298.868 207.263C300.777 205.481 302.983 204.453 306.39 203.756L309.326 203.155L309.467 199.706L309.608 196.256L307.551 196.261C306.404 196.264 304.436 196.765 303.101 197.394C300.789 198.483 296.251 202.784 296.068 204.058C296.019 204.401 295.858 202.839 295.709 200.589L295.439 196.497L292.066 196.358C290.211 196.281 288.541 196.372 288.355 196.558ZM195.861 203.052C198.576 203.739 201.89 206.655 203.327 209.62C204.695 212.442 204.818 218.095 203.573 220.91C202.467 223.411 200.101 225.983 197.84 227.144C194.932 228.635 190.117 228.258 187.408 226.329C183.4 223.472 181.239 216.963 182.61 211.873C183.757 207.61 187.286 203.859 190.981 202.974C193.158 202.452 193.512 202.458 195.861 203.052ZM266.299 203.784C268.892 205.021 271.594 208.372 272.487 211.462C273.999 216.692 272.608 221.904 268.774 225.369C266.144 227.747 264.475 228.26 260.467 227.926C256.125 227.564 252.763 224.434 251.305 219.396C250.389 216.233 250.705 212.008 252.056 209.347C253.238 207.017 256.917 203.598 258.659 203.211C259.399 203.046 260.219 202.83 260.483 202.73C261.332 202.407 264.687 203.015 266.299 203.784Z" fill="#FF5C38"/>
<path fill-rule="evenodd" clip-rule="evenodd" d="M115.29 2.77005V5.54011H118.071H120.853V2.77005V0H118.071H115.29V2.77005ZM126.416 2.77005V5.54011H138.933H151.451V2.77005V0H138.933H126.416V2.77005ZM126.416 13.8503V16.6203H129.198H131.979V13.8503V11.0802H129.198H126.416V13.8503ZM137.543 13.8503V16.6203H140.324H143.106V13.8503V11.0802H140.324H137.543V13.8503ZM148.669 13.8503V16.6203H157.014H165.359V13.8503V11.0802H157.014H148.669V13.8503ZM193.25 17.3194C185.381 19.3724 179.192 25.5818 177.171 33.4515C175.465 40.0917 177.091 47.3257 181.498 52.7134C182.374 53.7851 183.091 54.7726 183.091 54.908C183.091 55.0434 181.995 57.0499 180.653 59.3664C175.452 68.3528 173.704 74.6353 173.704 84.3384V88.6417H172.226H170.748L170.849 61.8934C170.927 41.4632 170.849 34.777 170.521 33.5869C169.962 31.561 167.163 28.7154 165.145 28.1216C163.09 27.517 111.995 27.517 109.941 28.1216C108.031 28.6836 105.15 31.5519 104.586 33.4539C103.979 35.5 103.979 86.3824 104.586 88.4284C105.15 90.3304 108.031 93.1988 109.941 93.7608C110.955 94.0589 115.232 94.1818 124.606 94.1818H137.84L137.648 96.0388C137.379 98.6326 138.212 100.944 140.069 102.758C142.177 104.815 143.753 105.262 148.905 105.262H153.225L151.148 106.983C146.176 111.104 142.224 117.678 141.045 123.787C140.825 124.929 140.569 126.215 140.478 126.643C140.312 127.42 140.287 127.422 133.364 127.422H126.416V130.193V132.963H133.37H140.324V137.653C140.324 142.171 140.356 142.374 141.178 143.193C141.998 144.01 142.209 144.043 146.664 144.043H151.297L151.676 146.439C153.202 156.095 162.832 162.543 172.124 160.133C178.634 158.445 183.562 153.037 184.605 146.439L184.984 144.043H207.083H229.182L229.561 146.439C231.087 156.095 240.717 162.543 250.009 160.133C258.823 157.847 264.441 148.744 262.244 140.309L261.774 138.503H262.782C263.403 138.503 264.136 138.158 264.692 137.604C265.563 136.737 265.586 136.605 265.37 133.804C264.546 123.121 256.853 114.128 246.339 111.555L243.765 110.925L239.856 98.4848C237.706 91.6427 235.946 86.0209 235.945 85.9918C235.943 85.9624 237.417 85.8845 239.221 85.8187C242.751 85.6892 243.633 85.3156 245.135 83.3156C245.791 82.4413 245.861 81.7934 245.959 75.6588C246.059 69.4169 246.016 68.8594 245.336 67.5325C244.556 66.0104 243.028 64.875 241.328 64.5547C240.637 64.4249 236.945 65.1898 230.471 66.8047L220.662 69.2513H213.548C207.073 69.2513 206.418 69.197 206.256 68.6454C205.353 65.5845 203.258 58.1919 203.258 58.0693C203.258 57.9835 203.845 57.8166 204.562 57.6978C208.359 57.0704 212.269 53.9025 214.132 49.9444C215.147 47.7869 215.241 47.2765 215.37 43.1955L215.51 38.7808H217.16C219.41 38.7808 220.645 37.8192 220.639 36.072C220.627 32.1582 218.048 26.8436 214.378 23.1667C208.84 17.6182 200.719 15.3707 193.25 17.3194ZM141.527 39.3109C148.906 41.225 154.232 47.977 154.232 55.4184C154.232 61.6403 149.925 70.2565 142.429 79.0303C137.918 84.3101 137.249 84.3526 133.144 79.6228C125.409 70.7098 120.853 61.7383 120.853 55.4184C120.853 44.8073 131.309 36.6606 141.527 39.3109ZM201.52 41.5508V44.3209H204.301H207.083V41.5508V38.7808H208.474H209.865V42.1166C209.865 46.5404 209.417 47.9057 207.269 50.0459C205.298 52.0084 203.715 52.631 200.697 52.631H198.738V45.7059V38.7808H200.129H201.52V41.5508ZM134.935 44.6214C128.956 46.1861 125.369 52.1425 126.749 58.2148C127.657 62.2109 132.002 69.7545 136.413 74.9923L137.543 76.3344L138.673 74.9923C143.245 69.5623 147.54 62.0153 148.337 58.0136C149.726 51.041 145.151 44.888 138.277 44.4836C137.013 44.4092 135.509 44.4711 134.935 44.6214ZM139.743 50.3333C143.316 51.8197 144.187 56.4838 141.408 59.2508C139.153 61.4966 135.932 61.4966 133.677 59.2508C129.377 54.9686 134.122 47.9943 139.743 50.3333ZM189.789 59.015C192.571 60.24 195.731 60.8314 196.984 60.3609C197.891 60.0194 198.007 60.0593 198.188 60.7764C198.298 61.2126 198.476 61.7982 198.583 62.0783C198.724 62.4432 198.275 62.3383 196.993 61.7064C192.569 59.5264 187.223 61.5316 185.254 66.1098C184.44 68.0034 184.556 71.1976 185.508 73.0602C185.962 73.9487 188.389 76.7184 191.155 79.5057L196.006 84.3928L195.143 86.4309L194.281 88.4686L186.725 88.5621L179.17 88.6556L179.359 82.8488C179.642 74.1761 180.833 70.1849 185.611 61.8934C186.791 59.8463 187.783 58.1711 187.815 58.1711C187.847 58.1711 188.735 58.551 189.789 59.015ZM240.462 75.1377V80.3316H234.812H229.162V77.8212C229.162 76.1803 228.966 74.9317 228.596 74.2163L228.029 73.1218L234.159 71.5654C237.53 70.7091 240.328 69.9941 240.375 69.9764C240.423 69.9584 240.462 72.2811 240.462 75.1377ZM222.919 75.6415C223.457 76.1772 223.773 76.887 223.773 77.5615C223.773 78.236 223.457 78.9458 222.919 79.4815C222.132 80.2654 221.807 80.3316 218.747 80.3316H215.428V77.5615V74.7915H218.747C221.807 74.7915 222.132 74.8576 222.919 75.6415ZM223.986 99.6762L226.473 113.308L224.138 120.279L221.804 127.249L220.006 127.354L218.209 127.459V125.49C218.209 122.442 217.59 120.897 215.549 118.853C214.551 117.853 213.501 117.035 213.216 117.035C212.773 117.035 212.682 115.738 212.585 108.119L212.472 99.2025L211.362 96.8684C209.476 92.9031 205.568 89.7411 201.78 89.1151C200.332 88.8754 200.19 88.4665 201.01 86.8879L201.543 85.8609L211.521 85.953L221.5 86.0448L223.986 99.6762ZM235.756 104.05C238.861 113.953 241.511 122.648 241.646 123.373C241.807 124.237 241.696 125.361 241.321 126.644C240.803 128.42 240.305 129.048 235.851 133.55L230.951 138.503H228.753H226.554V134.607V130.712L229.374 122.289L232.193 113.866L229.721 100.257C228.362 92.7715 227.25 86.4641 227.25 86.2397C227.25 85.9755 227.754 85.8692 228.68 85.9385L230.111 86.0448L235.756 104.05ZM173.708 96.1728C173.711 97.268 173.808 98.5142 173.923 98.9429L174.132 99.7219H159.473H144.813L143.959 98.8719C143.421 98.3362 143.106 97.6264 143.106 96.9519C143.106 96.2774 143.421 95.5675 143.959 95.0319L144.813 94.1818H159.258H173.704L173.708 96.1728ZM195.956 110.787V116.311L179.006 116.414L162.056 116.515L159.733 117.611C156.501 119.136 154.487 121.099 152.923 124.25L151.625 126.866L151.502 132.684L151.38 138.503H148.596H145.812L145.97 132.01C146.147 124.765 146.56 122.855 148.953 118.247C150.689 114.903 155.584 110.033 158.926 108.323C161.66 106.925 164.226 106.029 166.667 105.62C167.573 105.468 174.534 105.325 182.135 105.303L195.956 105.262V110.787ZM211.793 122.732C212.493 123.43 212.646 123.925 212.646 125.502V127.422H207.083H201.52V124.652V121.882H206.229C210.766 121.882 210.971 121.914 211.793 122.732ZM115.29 130.193V132.963H118.071H120.853V130.193V127.422H118.071H115.29V130.193ZM220.991 135.733V138.503H211.255H201.52V135.733V132.963H211.255H220.991V135.733ZM98.6001 141.273V144.043H101.382H104.163V141.273V138.503H101.382H98.6001V141.273ZM109.727 141.273V144.043H122.244H134.761V141.273V138.503H122.244H109.727V141.273ZM256.341 140.147C257.322 142.681 257.178 146.502 256.016 148.754C254.676 151.354 253.618 152.447 251.172 153.76C249.171 154.835 248.725 154.937 246.025 154.937C243.324 154.937 242.881 154.835 240.871 153.756C237.318 151.848 235.385 148.916 235.004 144.855L234.794 142.61L236.835 140.557L238.876 138.503H247.29H255.704L256.341 140.147ZM243.244 144.043V146.813H246.025H248.807V144.043V141.273H246.025H243.244V144.043ZM165.359 145.428V146.813H168.14H170.922V145.428V144.043H175.134H179.346L179.1 145.677C178.823 147.511 177.655 150.007 176.349 151.553C175.87 152.12 174.492 153.113 173.287 153.76C171.286 154.835 170.84 154.937 168.14 154.937C165.439 154.937 164.996 154.835 162.986 153.756C159.705 151.995 157.715 149.223 157.18 145.673L156.935 144.043H161.147H165.359V145.428ZM109.727 152.353V155.123H112.508H115.29V152.353V149.583H112.508H109.727V152.353ZM120.853 152.353V155.123H123.635H126.416V152.353V149.583H123.635H120.853V152.353ZM131.979 152.353V155.123H140.324H148.669V152.353V149.583H140.324H131.979V152.353Z" fill="url(#paint0_linear_111_3560)"/>
<defs>
<linearGradient id="paint0_linear_111_3560" x1="182.042" y1="0" x2="182.042" y2="160.64" gradientUnits="userSpaceOnUse">
<stop offset="0.131359" stop-color="#FF5C38"/>
<stop offset="0.943874" stop-color="#FF0D9E"/>
</linearGradient>
</defs>
</svg>
